<?xml version="1.0" encoding="UTF-8"?>
<svg width="525px" height="380px" viewBox="0 0 525 380" version="1.1" xmlns="http://www.w3.org/2000/svg" xmlns:xlink="http://www.w3.org/1999/xlink">
    <title>Spectrogram-Dark</title>
    <g id="Spectrogram-Dark" stroke="none" stroke-width="1" fill="none" fill-rule="evenodd">
        <g id="Panel">
            <rect fill="#000000" fill-rule="nonzero" x="0" y="0" width="525" height="380" rx="5"></rect>
            <g id="Brand/Dark/MediumWithLogo" transform="translate(202.1811, 365.3448)" fill="#FFFFFF">
                <g id="Logo/Icon/LightMode" transform="translate(0, 1.5372)">
                    <g id="Icon" transform="translate(-0, 0)">
                        <path d="M11.3937904,0 L11.3937904,9.18455578 C11.3937904,10.3236883 10.4702552,11.2471377 9.33101685,11.2471377 L0,11.2471377 L0,0 L11.3937904,0 Z M10.5444131,0.849298421 L0.849377347,0.849298421 L0.849377347,10.3978392 L9.33101685,10.3978392 C9.99445567,10.3978392 10.5335353,9.86544352 10.5442505,9.20461964 L10.5444131,9.18455578 L10.5444131,0.849298421 Z" id="Rectangle-Copy" fill-rule="nonzero"></path>
                        <path d="M2.52129916,1.34243669 C3.18482756,1.34243669 3.7227236,1.88033273 3.7227236,2.54386113 C3.7227236,3.20738952 3.18482756,3.74528556 2.52129916,3.74528556 C1.85777077,3.74528556 1.31987473,3.20738952 1.31987473,2.54386113 C1.31987473,1.88033273 1.85777077,1.34243669 2.52129916,1.34243669 Z M2.52129916,2.07057271 C2.25990919,2.07057271 2.04801075,2.28247115 2.04801075,2.54386113 C2.04801075,2.8052511 2.25990919,3.01714954 2.52129916,3.01714954 C2.78268914,3.01714954 2.99458758,2.8052511 2.99458758,2.54386113 C2.99458758,2.28247115 2.78268914,2.07057271 2.52129916,2.07057271 Z" id="Oval-Copy-8" fill-rule="nonzero"></path>
                        <path d="M2.52129916,7.5018521 C3.18482756,7.5018521 3.7227236,8.03974814 3.7227236,8.70327654 C3.7227236,9.36680493 3.18482756,9.90470097 2.52129916,9.90470097 C1.85777077,9.90470097 1.31987473,9.36680493 1.31987473,8.70327654 C1.31987473,8.03974814 1.85777077,7.5018521 2.52129916,7.5018521 Z M2.52129916,8.22998812 C2.25990919,8.22998812 2.04801075,8.44188656 2.04801075,8.70327654 C2.04801075,8.96466651 2.25990919,9.17656495 2.52129916,9.17656495 C2.78268914,9.17656495 2.99458758,8.96466651 2.99458758,8.70327654 C2.99458758,8.44188656 2.78268914,8.22998812 2.52129916,8.22998812 Z" id="Oval-Copy-7" fill-rule="nonzero"></path>
                        <path d="M8.87249124,7.5018521 C9.53601964,7.5018521 10.0739157,8.03974814 10.0739157,8.70327654 C10.0739157,9.36680493 9.53601964,9.90470097 8.87249124,9.90470097 C8.20896285,9.90470097 7.67106681,9.36680493 7.67106681,8.70327654 C7.67106681,8.03974814 8.20896285,7.5018521 8.87249124,7.5018521 Z M8.87249124,8.22998812 C8.61110127,8.22998812 8.39920283,8.44188656 8.39920283,8.70327654 C8.39920283,8.96466651 8.61110127,9.17656495 8.87249124,9.17656495 C9.13388122,9.17656495 9.34577966,8.96466651 9.34577966,8.70327654 C9.34577966,8.44188656 9.13388122,8.22998812 8.87249124,8.22998812 Z" id="Oval-Copy-6" fill-rule="nonzero"></path>
                        <path d="M8.87249124,1.34243669 C9.53601964,1.34243669 10.0739157,1.88033273 10.0739157,2.54386113 C10.0739157,3.20738952 9.53601964,3.74528556 8.87249124,3.74528556 C8.20896285,3.74528556 7.67106681,3.20738952 7.67106681,2.54386113 C7.67106681,1.88033273 8.20896285,1.34243669 8.87249124,1.34243669 Z M8.87249124,2.07057271 C8.61110127,2.07057271 8.39920283,2.28247115 8.39920283,2.54386113 C8.39920283,2.8052511 8.61110127,3.01714954 8.87249124,3.01714954 C9.13388122,3.01714954 9.34577966,2.8052511 9.34577966,2.54386113 C9.34577966,2.28247115 9.13388122,2.07057271 8.87249124,2.07057271 Z" id="Oval-Copy-5" fill-rule="nonzero"></path>
                        <polygon id="Line-Copy" fill-rule="nonzero" points="3.30597584 2.7131047 3.58484142 2.9926188 8.43566308 7.85472144 8.71452865 8.13423554 8.15550045 8.69196669 7.87663488 8.41245259 3.02581322 3.55034995 2.74694764 3.27083585"></polygon>
                        <circle id="Oval" cx="2.52129916" cy="5.7025357" r="1.20142443"></circle>
                        <circle id="Oval" cx="5.60100687" cy="8.70327654" r="1.20142443"></circle>
                        <circle id="Oval" cx="8.87249124" cy="5.7025357" r="1.20142443"></circle>
                        <circle id="Oval" cx="5.73637864" cy="2.54386113" r="1.20142443"></circle>
                    </g>
                </g>
                <g id="Brand/Dark/Medium" transform="translate(12.3348, 0)">
                    <g id="Flattened" transform="translate(0.6109, 1.5569)">
                        <path d="M4.90310345,5.59482759 L4.00793103,3.04155172 L3.11275862,5.59482759 L4.90310345,5.59482759 Z M5.43206897,7.11051724 L2.5837931,7.11051724 L2.12603448,8.44310345 L0,8.44310345 L2.91948276,0.773103448 L5.09637931,0.773103448 L8.01586207,8.44310345 L5.88982759,8.44310345 L5.43206897,7.11051724 Z" id="Shape" fill-rule="nonzero"></path>
                        <path d="M9.51931034,3.22465517 L11.3605172,3.22465517 L11.3605172,4.07913793 C11.5571839,3.76718391 11.797931,3.52813218 12.0827586,3.36198276 C12.3675862,3.19583333 12.6998851,3.11275862 13.0796552,3.11275862 C13.1271264,3.11275862 13.1796839,3.11275862 13.2373276,3.11275862 C13.2949713,3.11275862 13.361092,3.11954023 13.4356897,3.13310345 L13.4356897,4.89293103 C13.1915517,4.77086207 12.927069,4.70982759 12.6422414,4.70982759 C12.215,4.70982759 11.894569,4.83698276 11.6809483,5.0912931 C11.4673276,5.34560345 11.3605172,5.71689655 11.3605172,6.20517241 L11.3605172,8.44310345 L9.51931034,8.44310345 L9.51931034,3.22465517 Z" id="Path" fill-rule="nonzero"></path>
                        <path d="M14.9493103,0 L16.7905172,0 L16.7905172,3.88586207 C17.0414368,3.58068966 17.2957471,3.37554598 17.5534483,3.27043103 C17.8111494,3.16531609 18.112931,3.11275862 18.4587931,3.11275862 C19.1166092,3.11275862 19.6133621,3.29416667 19.9490517,3.65698276 C20.2847414,4.01979885 20.4525862,4.50977011 20.4525862,5.12689655 L20.4525862,8.44310345 L18.6113793,8.44310345 L18.6113793,5.80844828 C18.6113793,5.54396552 18.5910345,5.33034483 18.5503448,5.16758621 C18.5096552,5.00482759 18.4418391,4.87936782 18.3468966,4.7912069 C18.1841379,4.6487931 17.9874713,4.57758621 17.7568966,4.57758621 C17.4449425,4.57758621 17.2058908,4.67083333 17.0397414,4.85732759 C16.873592,5.04382184 16.7905172,5.31 16.7905172,5.65586207 L16.7905172,8.44310345 L14.9493103,8.44310345 L14.9493103,0 Z" id="Path" fill-rule="nonzero"></path>
                        <polygon id="Rectangle" points="27.5342387 9.32241379 107.4925 9.32241379 107.4925 11.0465517 26.4580172 11.0465517"></polygon>
                        <path d="M23.6955172,3.22465517 L25.0891379,5.9 L26.442069,3.22465517 L28.557931,3.22465517 L24.3668966,11.0472414 L22.3018966,11.0472414 L22.3022241,11.0456552 L0.0442241379,11.0465517 L0.0442241379,9.32241379 L23.2272241,9.32165517 L24.082069,7.73103448 L21.5593103,3.22465517 L23.6955172,3.22465517 Z" id="Combined-Shape" fill-rule="nonzero"></path>
                        <polygon id="Path" fill-rule="nonzero" points="31.9331034 4.76068966 31.9331034 8.44310345 30.0918966 8.44310345 30.0918966 4.76068966 29.4815517 4.76068966 29.4815517 3.22465517 30.0918966 3.22465517 30.0918966 1.65810345 31.9331034 1.65810345 31.9331034 3.22465517 32.9808621 3.22465517 32.9808621 4.76068966"></polygon>
                        <path d="M34.5962069,0 L36.4374138,0 L36.4374138,3.88586207 C36.6883333,3.58068966 36.9426437,3.37554598 37.2003448,3.27043103 C37.458046,3.16531609 37.7598276,3.11275862 38.1056897,3.11275862 C38.7635057,3.11275862 39.2602586,3.29416667 39.5959483,3.65698276 C39.9316379,4.01979885 40.0994828,4.50977011 40.0994828,5.12689655 L40.0994828,8.44310345 L38.2582759,8.44310345 L38.2582759,5.80844828 C38.2582759,5.54396552 38.237931,5.33034483 38.1972414,5.16758621 C38.1565517,5.00482759 38.0887356,4.87936782 37.9937931,4.7912069 C37.8310345,4.6487931 37.6343678,4.57758621 37.4037931,4.57758621 C37.0918391,4.57758621 36.8527874,4.67083333 36.6866379,4.85732759 C36.5204885,5.04382184 36.4374138,5.31 36.4374138,5.65586207 L36.4374138,8.44310345 L34.5962069,8.44310345 L34.5962069,0 Z" id="Path" fill-rule="nonzero"></path>
                        <path d="M42.0403448,3.22465517 L43.8815517,3.22465517 L43.8815517,3.86551724 C44.3833908,3.38402299 44.9462644,3.14327586 45.5701724,3.14327586 C46.3432759,3.14327586 46.9332759,3.4687931 47.3401724,4.11982759 C47.7538506,3.46201149 48.3438506,3.13310345 49.1101724,3.13310345 C49.3543103,3.13310345 49.5848851,3.1687069 49.8018966,3.23991379 C50.018908,3.31112069 50.2054023,3.42301724 50.3613793,3.57560345 C50.5173563,3.72818966 50.6411207,3.92655172 50.7326724,4.17068966 C50.8242241,4.41482759 50.87,4.70982759 50.87,5.05568966 L50.87,8.44310345 L49.0287931,8.44310345 L49.0287931,5.86948276 C49.0287931,5.605 49.0101437,5.38798851 48.9728448,5.21844828 C48.935546,5.04890805 48.8812931,4.91666667 48.8100862,4.82172414 C48.7388793,4.72678161 48.6558046,4.66235632 48.5608621,4.62844828 C48.4659195,4.59454023 48.3641954,4.57758621 48.2556897,4.57758621 C47.6656897,4.57758621 47.3706897,5.00821839 47.3706897,5.86948276 L47.3706897,8.44310345 L45.5294828,8.44310345 L45.5294828,5.86948276 C45.5294828,5.605 45.5125287,5.3862931 45.4786207,5.21336207 C45.4447126,5.04043103 45.395546,4.90310345 45.3311207,4.80137931 C45.2666954,4.69965517 45.1836207,4.63014368 45.0818966,4.59284483 C44.9801724,4.55554598 44.8614943,4.53689655 44.7258621,4.53689655 C44.6105747,4.53689655 44.502069,4.55385057 44.4003448,4.58775862 C44.2986207,4.62166667 44.2087644,4.68778736 44.1307759,4.78612069 C44.0527874,4.88445402 43.9917529,5.02008621 43.9476724,5.19301724 C43.903592,5.36594828 43.8815517,5.59143678 43.8815517,5.86948276 L43.8815517,8.44310345 L42.0403448,8.44310345 L42.0403448,3.22465517 Z" id="Path" fill-rule="nonzero"></path>
                        <path d="M56.6356897,5.07603448 C56.5746552,4.81833333 56.4491954,4.61149425 56.2593103,4.45551724 C56.0694253,4.29954023 55.8388506,4.22155172 55.5675862,4.22155172 C55.2827586,4.22155172 55.0504885,4.29614943 54.8707759,4.44534483 C54.6910632,4.59454023 54.5774713,4.80477011 54.53,5.07603448 L56.6356897,5.07603448 Z M54.4791379,6.14413793 C54.4791379,6.93758621 54.8521264,7.33431034 55.5981034,7.33431034 C55.9982184,7.33431034 56.3,7.17155172 56.5034483,6.84603448 L58.2836207,6.84603448 C57.9241954,8.0395977 57.0256322,8.63637931 55.587931,8.63637931 C55.1471264,8.63637931 54.7436207,8.57025862 54.3774138,8.43801724 C54.0112069,8.30577586 53.6975575,8.11758621 53.4364655,7.87344828 C53.1753736,7.62931034 52.9736207,7.33770115 52.8312069,6.99862069 C52.6887931,6.65954023 52.6175862,6.27977011 52.6175862,5.85931034 C52.6175862,5.42528736 52.6854023,5.03364943 52.8210345,4.68439655 C52.9566667,4.33514368 53.1499425,4.03844828 53.4008621,3.79431034 C53.6517816,3.55017241 53.9552586,3.36198276 54.3112931,3.22974138 C54.6673276,3.0975 55.0691379,3.03137931 55.5167241,3.03137931 C55.9575287,3.03137931 56.3542529,3.0975 56.7068966,3.22974138 C57.0595402,3.36198276 57.357931,3.55356322 57.602069,3.80448276 C57.8462069,4.0554023 58.0327011,4.36227011 58.1615517,4.72508621 C58.2904023,5.0879023 58.3548276,5.49649425 58.3548276,5.95086207 L58.3548276,6.14413793 L54.4791379,6.14413793 Z" id="Shape" fill-rule="nonzero"></path>
                        <polygon id="Path" fill-rule="nonzero" points="62.2182759 4.76068966 62.2182759 8.44310345 60.377069 8.44310345 60.377069 4.76068966 59.7667241 4.76068966 59.7667241 3.22465517 60.377069 3.22465517 60.377069 1.65810345 62.2182759 1.65810345 62.2182759 3.22465517 63.2660345 3.22465517 63.2660345 4.76068966"></polygon>
                        <path d="M66.6310345,3.22465517 L66.6310345,8.44310345 L64.7898276,8.44310345 L64.7898276,3.22465517 L66.6310345,3.22465517 Z M64.6677586,1.22068966 C64.6677586,1.07827586 64.6948851,0.94433908 64.7491379,0.81887931 C64.8033908,0.69341954 64.8779885,0.583218391 64.972931,0.488275862 C65.0678736,0.393333333 65.1780747,0.318735632 65.3035345,0.264482759 C65.4289943,0.210229885 65.562931,0.183103448 65.7053448,0.183103448 C65.8477586,0.183103448 65.9816954,0.210229885 66.1071552,0.264482759 C66.2326149,0.318735632 66.3428161,0.393333333 66.4377586,0.488275862 C66.5327011,0.583218391 66.6072989,0.69341954 66.6615517,0.81887931 C66.7158046,0.94433908 66.742931,1.07827586 66.742931,1.22068966 C66.742931,1.36310345 66.7158046,1.49704023 66.6615517,1.6225 C66.6072989,1.74795977 66.5327011,1.85816092 66.4377586,1.95310345 C66.3428161,2.04804598 66.2326149,2.12264368 66.1071552,2.17689655 C65.9816954,2.23114943 65.8477586,2.25827586 65.7053448,2.25827586 C65.562931,2.25827586 65.4289943,2.23114943 65.3035345,2.17689655 C65.1780747,2.12264368 65.0678736,2.04804598 64.972931,1.95310345 C64.8779885,1.85816092 64.8033908,1.74795977 64.7491379,1.6225 C64.6948851,1.49704023 64.6677586,1.36310345 64.6677586,1.22068966 Z" id="Shape" fill-rule="nonzero"></path>
                        <path d="M72.5187931,4.91327586 C72.2000575,4.69626437 71.877931,4.58775862 71.5524138,4.58775862 C71.376092,4.58775862 71.2116379,4.61827586 71.0590517,4.67931034 C70.9064655,4.74034483 70.7725287,4.82681034 70.6572414,4.9387069 C70.541954,5.05060345 70.4520977,5.18284483 70.3876724,5.33543103 C70.3232471,5.48801724 70.2910345,5.65925287 70.2910345,5.84913793 C70.2910345,6.03224138 70.3232471,6.20008621 70.3876724,6.35267241 C70.4520977,6.50525862 70.5402586,6.6375 70.6521552,6.74939655 C70.7640517,6.8612931 70.8979885,6.94775862 71.0539655,7.0087931 C71.2099425,7.06982759 71.376092,7.10034483 71.5524138,7.10034483 C71.8982759,7.10034483 72.2204023,6.98166667 72.5187931,6.74431034 L72.5187931,8.31086207 C72.0644253,8.50752874 71.6337931,8.60586207 71.2268966,8.60586207 C70.8471264,8.60586207 70.4860057,8.54143678 70.1435345,8.41258621 C69.8010632,8.28373563 69.4992816,8.09893678 69.2381897,7.85818966 C68.9770977,7.61744253 68.7685632,7.32922414 68.6125862,6.99353448 C68.4566092,6.65784483 68.3786207,6.28316092 68.3786207,5.86948276 C68.3786207,5.4558046 68.4532184,5.07772989 68.6024138,4.73525862 C68.7516092,4.39278736 68.9550575,4.09778736 69.2127586,3.85025862 C69.4704598,3.60272989 69.7773276,3.40945402 70.1333621,3.27043103 C70.4893966,3.13140805 70.8708621,3.06189655 71.2777586,3.06189655 C71.7253448,3.06189655 72.139023,3.15683908 72.5187931,3.34672414 L72.5187931,4.91327586 Z" id="Path" fill-rule="nonzero"></path>
                        <path d="M80.5712069,0.773103448 L80.5712069,4.9437931 C80.5712069,5.16758621 80.5796839,5.39646552 80.5966379,5.63043103 C80.613592,5.86439655 80.664454,6.07632184 80.7492241,6.2662069 C80.8339943,6.45609195 80.967931,6.61037356 81.1510345,6.72905172 C81.3341379,6.84772989 81.5918391,6.90706897 81.9241379,6.90706897 C82.2564368,6.90706897 82.5124425,6.84772989 82.6921552,6.72905172 C82.8718678,6.61037356 83.0058046,6.45609195 83.0939655,6.2662069 C83.1821264,6.07632184 83.2346839,5.86439655 83.2516379,5.63043103 C83.268592,5.39646552 83.277069,5.16758621 83.277069,4.9437931 L83.277069,0.773103448 L85.2606897,0.773103448 L85.2606897,5.21844828 C85.2606897,6.41201149 84.9877299,7.28344828 84.4418103,7.83275862 C83.8958908,8.38206897 83.0566667,8.65672414 81.9241379,8.65672414 C80.7916092,8.65672414 79.9506897,8.38206897 79.4013793,7.83275862 C78.852069,7.28344828 78.5774138,6.41201149 78.5774138,5.21844828 L78.5774138,0.773103448 L80.5712069,0.773103448 Z" id="Path" fill-rule="nonzero"></path>
                        <path d="M87.4965517,3.22465517 L89.3377586,3.22465517 L89.3377586,3.88586207 C89.5886782,3.58068966 89.8429885,3.37554598 90.1006897,3.27043103 C90.3583908,3.16531609 90.6601724,3.11275862 91.0060345,3.11275862 C91.3722414,3.11275862 91.6858908,3.1720977 91.9469828,3.29077586 C92.2080747,3.40945402 92.4301724,3.57729885 92.6132759,3.79431034 C92.7624713,3.97063218 92.8641954,4.16729885 92.9184483,4.38431034 C92.9727011,4.60132184 92.9998276,4.84885057 92.9998276,5.12689655 L92.9998276,8.44310345 L91.1586207,8.44310345 L91.1586207,5.80844828 C91.1586207,5.55074713 91.1399713,5.34221264 91.1026724,5.18284483 C91.0653736,5.02347701 90.9992529,4.89632184 90.9043103,4.80137931 C90.822931,4.72 90.7313793,4.66235632 90.6296552,4.62844828 C90.527931,4.59454023 90.4194253,4.57758621 90.3041379,4.57758621 C89.9921839,4.57758621 89.7531322,4.67083333 89.5869828,4.85732759 C89.4208333,5.04382184 89.3377586,5.31 89.3377586,5.65586207 L89.3377586,8.44310345 L87.4965517,8.44310345 L87.4965517,3.22465517 Z" id="Path" fill-rule="nonzero"></path>
                        <path d="M96.7818966,3.22465517 L96.7818966,8.44310345 L94.9406897,8.44310345 L94.9406897,3.22465517 L96.7818966,3.22465517 Z M94.8186207,1.22068966 C94.8186207,1.07827586 94.8457471,0.94433908 94.9,0.81887931 C94.9542529,0.69341954 95.0288506,0.583218391 95.1237931,0.488275862 C95.2187356,0.393333333 95.3289368,0.318735632 95.4543966,0.264482759 C95.5798563,0.210229885 95.7137931,0.183103448 95.8562069,0.183103448 C95.9986207,0.183103448 96.1325575,0.210229885 96.2580172,0.264482759 C96.383477,0.318735632 96.4936782,0.393333333 96.5886207,0.488275862 C96.6835632,0.583218391 96.7581609,0.69341954 96.8124138,0.81887931 C96.8666667,0.94433908 96.8937931,1.07827586 96.8937931,1.22068966 C96.8937931,1.36310345 96.8666667,1.49704023 96.8124138,1.6225 C96.7581609,1.74795977 96.6835632,1.85816092 96.5886207,1.95310345 C96.4936782,2.04804598 96.383477,2.12264368 96.2580172,2.17689655 C96.1325575,2.23114943 95.9986207,2.25827586 95.8562069,2.25827586 C95.7137931,2.25827586 95.5798563,2.23114943 95.4543966,2.17689655 C95.3289368,2.12264368 95.2187356,2.04804598 95.1237931,1.95310345 C95.0288506,1.85816092 94.9542529,1.74795977 94.9,1.6225 C94.8457471,1.49704023 94.8186207,1.36310345 94.8186207,1.22068966 Z" id="Shape" fill-rule="nonzero"></path>
                        <polygon id="Path" fill-rule="nonzero" points="100.787759 4.76068966 100.787759 8.44310345 98.9465517 8.44310345 98.9465517 4.76068966 98.3362069 4.76068966 98.3362069 3.22465517 98.9465517 3.22465517 98.9465517 1.65810345 100.787759 1.65810345 100.787759 3.22465517 101.835517 3.22465517 101.835517 4.76068966"></polygon>
                        <path d="M106.726379,4.56741379 C106.387299,4.39109195 106.055,4.30293103 105.729483,4.30293103 C105.559943,4.30293103 105.422615,4.33683908 105.3175,4.40465517 C105.212385,4.47247126 105.159828,4.56402299 105.159828,4.67931034 C105.159828,4.74034483 105.168305,4.78951149 105.185259,4.82681034 C105.202213,4.8641092 105.239511,4.89971264 105.297155,4.93362069 C105.354799,4.96752874 105.439569,4.99804598 105.551466,5.02517241 C105.663362,5.05229885 105.810862,5.0862069 105.993966,5.12689655 C106.502586,5.22862069 106.882356,5.41002874 107.133276,5.67112069 C107.384195,5.93221264 107.509655,6.2662069 107.509655,6.67310345 C107.509655,6.97827586 107.448621,7.25293103 107.326552,7.49706897 C107.204483,7.7412069 107.034943,7.94635057 106.817931,8.1125 C106.60092,8.27864943 106.339828,8.4075 106.034655,8.49905172 C105.729483,8.59060345 105.393793,8.63637931 105.027586,8.63637931 C104.322299,8.63637931 103.627184,8.43632184 102.942241,8.0362069 L103.613621,6.73413793 C104.129023,7.08678161 104.617299,7.26310345 105.078448,7.26310345 C105.247989,7.26310345 105.387011,7.2258046 105.495517,7.1512069 C105.604023,7.0766092 105.658276,6.98166667 105.658276,6.86637931 C105.658276,6.79856322 105.649799,6.74261494 105.632845,6.69853448 C105.615891,6.65445402 105.580287,6.61376437 105.526034,6.57646552 C105.471782,6.53916667 105.392098,6.50525862 105.286983,6.47474138 C105.181868,6.44422414 105.04454,6.41201149 104.875,6.37810345 C104.305345,6.26281609 103.906925,6.09158046 103.679741,5.86439655 C103.452557,5.63721264 103.338966,5.32356322 103.338966,4.92344828 C103.338966,4.63183908 103.393218,4.36905172 103.501724,4.13508621 C103.61023,3.90112069 103.766207,3.70275862 103.969655,3.54 C104.173103,3.37724138 104.418937,3.25178161 104.707155,3.16362069 C104.995374,3.07545977 105.315805,3.03137931 105.668448,3.03137931 C106.244885,3.03137931 106.804368,3.14327586 107.346897,3.36706897 L106.726379,4.56741379 Z" id="Path" fill-rule="nonzero"></path>
                    </g>
                </g>
            </g>
            <g id="Sound-Spectrograph-Copy" transform="translate(49.6328, 2.1035)" fill="#FFFFFF" fill-rule="nonzero" opacity="0.8">
                <path d="M5.56640625,2.19726562 L4.45898438,2.85351562 C4.25195312,2.49414063 4.0546875,2.25976563 3.8671875,2.15039063 C3.671875,2.02539062 3.41992188,1.96289063 3.11132812,1.96289063 C2.73242187,1.96289063 2.41796875,2.0703125 2.16796875,2.28515625 C1.91796875,2.49609375 1.79296875,2.76171875 1.79296875,3.08203125 C1.79296875,3.5234375 2.12109375,3.87890625 2.77734375,4.1484375 L3.6796875,4.51757813 C4.4140625,4.81445313 4.95117188,5.17675781 5.29101562,5.60449219 C5.63085938,6.03222656 5.80078125,6.55664062 5.80078125,7.17773437 C5.80078125,8.00976563 5.5234375,8.69726563 4.96875,9.24023437 C4.41015625,9.78710938 3.71679688,10.0605469 2.88867188,10.0605469 C2.10351563,10.0605469 1.45507813,9.828125 0.943359375,9.36328125 C0.439453125,8.8984375 0.125,8.24414063 0,7.40039062 L1.3828125,7.09570313 C1.4453125,7.62695313 1.5546875,7.99414063 1.7109375,8.19726562 C1.9921875,8.58789062 2.40234375,8.78320312 2.94140625,8.78320312 C3.3671875,8.78320312 3.72070313,8.640625 4.00195313,8.35546875 C4.28320312,8.0703125 4.42382813,7.70898437 4.42382813,7.27148437 C4.42382813,7.09570313 4.39941406,6.93457031 4.35058594,6.78808594 C4.30175781,6.64160156 4.22558594,6.50683594 4.12207031,6.38378906 C4.01855469,6.26074219 3.88476563,6.14550781 3.72070313,6.03808594 C3.55664062,5.93066406 3.36132813,5.828125 3.13476563,5.73046875 L2.26171875,5.3671875 C1.0234375,4.84375 0.404296875,4.078125 0.404296875,3.0703125 C0.404296875,2.390625 0.6640625,1.82226563 1.18359375,1.36523438 C1.703125,0.904296875 2.34960937,0.673828125 3.12304687,0.673828125 C4.16601562,0.673828125 4.98046875,1.18164062 5.56640625,2.19726562 Z" id="Path"></path>
                <path d="M8.02578125,7.00195313 C8.02578125,6.17773438 8.32070313,5.4765625 8.91054688,4.8984375 C9.50039063,4.3203125 10.2191406,4.03125 11.0667969,4.03125 C11.9183594,4.03125 12.6410156,4.32226562 13.2347656,4.90429688 C13.8207031,5.48632812 14.1136719,6.20117187 14.1136719,7.04882812 C14.1136719,7.90429688 13.81875,8.62109375 13.2289063,9.19921875 C12.6351563,9.7734375 11.9066406,10.0605469 11.0433594,10.0605469 C10.1878906,10.0605469 9.47109375,9.76757813 8.89296875,9.18164062 C8.31484375,8.60351563 8.02578125,7.87695313 8.02578125,7.00195313 Z M9.3734375,7.02539062 C9.3734375,7.59570312 9.52578125,8.046875 9.83046875,8.37890625 C10.1429688,8.71484375 10.5550781,8.8828125 11.0667969,8.8828125 C11.5824219,8.8828125 11.9945313,8.71679688 12.303125,8.38476562 C12.6117188,8.05273437 12.7660156,7.609375 12.7660156,7.0546875 C12.7660156,6.5 12.6117188,6.05664063 12.303125,5.72460938 C11.990625,5.38867188 11.5785156,5.22070312 11.0667969,5.22070312 C10.5628906,5.22070312 10.1546875,5.38867188 9.8421875,5.72460938 C9.5296875,6.06054687 9.3734375,6.49414062 9.3734375,7.02539062 Z" id="Shape"></path>
                <path d="M17.9265625,4.18945312 L17.9265625,7.46484375 C17.9265625,8.41015625 18.2996094,8.8828125 19.0457031,8.8828125 C19.7917969,8.8828125 20.1648438,8.41015625 20.1648438,7.46484375 L20.1648438,4.18945312 L21.4832031,4.18945312 L21.4832031,7.49414062 C21.4832031,7.95117188 21.4265625,8.34570312 21.3132812,8.67773438 C21.2039062,8.97460938 21.0144531,9.2421875 20.7449219,9.48046875 C20.2996094,9.8671875 19.7332031,10.0605469 19.0457031,10.0605469 C18.3621094,10.0605469 17.7976563,9.8671875 17.3523437,9.48046875 C17.0789062,9.2421875 16.8855469,8.97460938 16.7722656,8.67773438 C16.6628906,8.41210937 16.6082031,8.01757813 16.6082031,7.49414062 L16.6082031,4.18945312 L17.9265625,4.18945312 Z" id="Path"></path>
                <path d="M24.2472656,4.18945312 L25.5714844,4.18945312 L25.5714844,4.71679688 C26.0324219,4.25976562 26.5519531,4.03125 27.1300781,4.03125 C27.7941406,4.03125 28.3117188,4.24023438 28.6828125,4.65820313 C29.003125,5.01367188 29.1632813,5.59375 29.1632813,6.3984375 L29.1632813,9.89648438 L27.8390625,9.89648438 L27.8390625,6.70898438 C27.8390625,6.14648438 27.7609375,5.7578125 27.6046875,5.54296875 C27.4523438,5.32421875 27.175,5.21484375 26.7726563,5.21484375 C26.3351562,5.21484375 26.0246094,5.359375 25.8410156,5.6484375 C25.6613281,5.93359375 25.5714844,6.43164062 25.5714844,7.14257813 L25.5714844,9.89648438 L24.2472656,9.89648438 L24.2472656,4.18945312 Z" id="Path"></path>
                <path d="M36.134375,0 L37.4585937,0 L37.4585937,9.89648438 L36.134375,9.89648438 L36.134375,9.29882812 C35.6148437,9.80664062 35.0269531,10.0605469 34.3707031,10.0605469 C33.5894531,10.0605469 32.9410156,9.77539063 32.4253906,9.20507813 C31.9136719,8.62304688 31.6578125,7.89648438 31.6578125,7.02539062 C31.6578125,6.17382812 31.9136719,5.46289062 32.4253906,4.89257813 C32.9332031,4.31835938 33.571875,4.03125 34.3414062,4.03125 C35.009375,4.03125 35.6070312,4.3046875 36.134375,4.8515625 L36.134375,0 Z M33.0054687,7.02539062 C33.0054687,7.57226562 33.1519531,8.01757812 33.4449219,8.36132812 C33.7457031,8.70898437 34.1246094,8.8828125 34.5816406,8.8828125 C35.0699219,8.8828125 35.4644531,8.71484375 35.7652344,8.37890625 C36.0660156,8.03125 36.2164062,7.58984375 36.2164062,7.0546875 C36.2164062,6.51953125 36.0660156,6.078125 35.7652344,5.73046875 C35.4644531,5.390625 35.0738281,5.22070312 34.5933594,5.22070312 C34.1402344,5.22070312 33.7613281,5.39257812 33.4566406,5.73632812 C33.1558594,6.08398437 33.0054687,6.51367188 33.0054687,7.02539062 Z" id="Shape"></path>
                <path d="M50.3929688,2.19726562 L49.2855469,2.85351562 C49.0785156,2.49414063 48.88125,2.25976563 48.69375,2.15039063 C48.4984375,2.02539062 48.2464844,1.96289063 47.9378906,1.96289063 C47.5589844,1.96289063 47.2445313,2.0703125 46.9945313,2.28515625 C46.7445313,2.49609375 46.6195313,2.76171875 46.6195313,3.08203125 C46.6195313,3.5234375 46.9476563,3.87890625 47.6039063,4.1484375 L48.50625,4.51757813 C49.240625,4.81445313 49.7777344,5.17675781 50.1175781,5.60449219 C50.4574219,6.03222656 50.6273438,6.55664062 50.6273438,7.17773437 C50.6273438,8.00976563 50.35,8.69726563 49.7953125,9.24023437 C49.2367188,9.78710938 48.5433594,10.0605469 47.7152344,10.0605469 C46.9300781,10.0605469 46.2816406,9.828125 45.7699219,9.36328125 C45.2660156,8.8984375 44.9515625,8.24414063 44.8265625,7.40039062 L46.209375,7.09570313 C46.271875,7.62695313 46.38125,7.99414063 46.5375,8.19726562 C46.81875,8.58789062 47.2289063,8.78320312 47.7679688,8.78320312 C48.19375,8.78320312 48.5472656,8.640625 48.8285156,8.35546875 C49.1097656,8.0703125 49.2503906,7.70898437 49.2503906,7.27148437 C49.2503906,7.09570313 49.2259766,6.93457031 49.1771484,6.78808594 C49.1283203,6.64160156 49.0521484,6.50683594 48.9486328,6.38378906 C48.8451172,6.26074219 48.7113281,6.14550781 48.5472656,6.03808594 C48.3832031,5.93066406 48.1878906,5.828125 47.9613281,5.73046875 L47.0882813,5.3671875 C45.85,4.84375 45.2308594,4.078125 45.2308594,3.0703125 C45.2308594,2.390625 45.490625,1.82226563 46.0101563,1.36523438 C46.5296875,0.904296875 47.1761719,0.673828125 47.9496094,0.673828125 C48.9925781,0.673828125 49.8070313,1.18164062 50.3929688,2.19726562 Z" id="Path"></path>
                <path d="M54.4402344,13.0019531 L53.121875,13.0019531 L53.121875,4.18945312 L54.4402344,4.18945312 L54.4402344,4.81054688 C54.9597656,4.29101562 55.5496094,4.03125 56.2097656,4.03125 C56.9949219,4.03125 57.6414063,4.3203125 58.1492188,4.8984375 C58.6648438,5.47265625 58.9226563,6.19726563 58.9226563,7.07226563 C58.9226563,7.92773438 58.6667969,8.640625 58.1550781,9.2109375 C57.6472656,9.77734375 57.0066406,10.0605469 56.2332031,10.0605469 C55.5652344,10.0605469 54.9675781,9.79296875 54.4402344,9.2578125 L54.4402344,13.0019531 Z M57.575,7.078125 C57.575,6.53125 57.4265625,6.0859375 57.1296875,5.7421875 C56.8289063,5.39453125 56.45,5.22070312 55.9929688,5.22070312 C55.5085938,5.22070312 55.1160156,5.38867188 54.8152344,5.72460938 C54.5144531,6.06054687 54.3640625,6.50195313 54.3640625,7.04882812 C54.3640625,7.58398437 54.5144531,8.02539063 54.8152344,8.37304688 C55.1121094,8.71289062 55.5027344,8.8828125 55.9871094,8.8828125 C56.4441406,8.8828125 56.8210938,8.7109375 57.1179688,8.3671875 C57.4226563,8.0234375 57.575,7.59375 57.575,7.078125 Z" id="Shape"></path>
                <path d="M66.6144531,7.35351562 L62.5246094,7.35351562 C62.5597656,7.82226562 62.7121094,8.1953125 62.9816406,8.47265625 C63.2511719,8.74609375 63.596875,8.8828125 64.01875,8.8828125 C64.346875,8.8828125 64.6183594,8.8046875 64.8332031,8.6484375 C65.0441406,8.4921875 65.284375,8.203125 65.5539062,7.78125 L66.6671875,8.40234375 C66.4953125,8.6953125 66.3136719,8.94628906 66.1222656,9.15527344 C65.9308594,9.36425781 65.7257812,9.53613281 65.5070312,9.67089844 C65.2882812,9.80566406 65.0519531,9.90429688 64.7980469,9.96679688 C64.5441406,10.0292969 64.26875,10.0605469 63.971875,10.0605469 C63.1203125,10.0605469 62.4367187,9.78710938 61.9210937,9.24023438 C61.4054687,8.68945312 61.1476562,7.95898437 61.1476562,7.04882812 C61.1476562,6.14648438 61.3976562,5.41601562 61.8976562,4.85742187 C62.4015625,4.30664062 63.0695312,4.03125 63.9015625,4.03125 C64.7414062,4.03125 65.4054687,4.29882812 65.89375,4.83398438 C66.378125,5.36523437 66.6203125,6.1015625 66.6203125,7.04296875 L66.6144531,7.35351562 Z M65.2609375,6.27539062 C65.0773437,5.57226562 64.6339844,5.22070312 63.9308594,5.22070312 C63.7707031,5.22070312 63.6203125,5.24511719 63.4796875,5.29394531 C63.3390625,5.34277344 63.2111328,5.41308594 63.0958984,5.50488281 C62.9806641,5.59667969 62.8820312,5.70703125 62.8,5.8359375 C62.7179687,5.96484375 62.6554687,6.11132812 62.6125,6.27539062 L65.2609375,6.27539062 Z" id="Shape"></path>
                <path d="M73.5972656,4.43554688 L73.5972656,6.1875 C73.2964844,5.8203125 73.0269531,5.56835938 72.7886719,5.43164063 C72.5542969,5.29101563 72.2789063,5.22070313 71.9625,5.22070313 C71.4664063,5.22070313 71.0542969,5.39453125 70.7261719,5.7421875 C70.3980469,6.08984375 70.2339844,6.52539063 70.2339844,7.04882812 C70.2339844,7.58398437 70.3921875,8.0234375 70.7085938,8.3671875 C71.0289063,8.7109375 71.4371094,8.8828125 71.9332031,8.8828125 C72.2496094,8.8828125 72.5289063,8.81445312 72.7710938,8.67773438 C73.0054688,8.54492188 73.2808594,8.28710938 73.5972656,7.90429688 L73.5972656,9.64453125 C73.0621094,9.921875 72.5269531,10.0605469 71.9917969,10.0605469 C71.1089844,10.0605469 70.3707031,9.77539063 69.7769531,9.20507812 C69.1832031,8.63085938 68.8863281,7.91796875 68.8863281,7.06640625 C68.8863281,6.21484375 69.1871094,5.49609375 69.7886719,4.91015625 C70.3902344,4.32421875 71.1285156,4.03125 72.0035156,4.03125 C72.5660156,4.03125 73.0972656,4.16601562 73.5972656,4.43554688 Z" id="Path"></path>
                <polygon id="Path" points="77.3339844 5.41992188 77.3339844 9.89648438 76.015625 9.89648438 76.015625 5.41992188 75.453125 5.41992188 75.453125 4.18945312 76.015625 4.18945312 76.015625 2.09765625 77.3339844 2.09765625 77.3339844 4.18945312 78.359375 4.18945312 78.359375 5.41992188"></polygon>
                <path d="M80.3558594,4.18945312 L81.6742187,4.18945312 L81.6742187,4.69921875 C81.9164062,4.4453125 82.13125,4.27148438 82.31875,4.17773438 C82.5101562,4.08007812 82.7367187,4.03125 82.9984375,4.03125 C83.3460937,4.03125 83.709375,4.14453125 84.0882812,4.37109375 L83.4847656,5.578125 C83.2347656,5.3984375 82.990625,5.30859375 82.7523437,5.30859375 C82.0335937,5.30859375 81.6742187,5.8515625 81.6742187,6.9375 L81.6742187,9.89648438 L80.3558594,9.89648438 L80.3558594,4.18945312 Z" id="Path"></path>
                <path d="M85.5691406,7.00195313 C85.5691406,6.17773438 85.8640625,5.4765625 86.4539063,4.8984375 C87.04375,4.3203125 87.7625,4.03125 88.6101563,4.03125 C89.4617188,4.03125 90.184375,4.32226562 90.778125,4.90429688 C91.3640625,5.48632812 91.6570313,6.20117187 91.6570313,7.04882812 C91.6570313,7.90429688 91.3621094,8.62109375 90.7722656,9.19921875 C90.1785156,9.7734375 89.45,10.0605469 88.5867188,10.0605469 C87.73125,10.0605469 87.0144531,9.76757813 86.4363281,9.18164062 C85.8582031,8.60351563 85.5691406,7.87695313 85.5691406,7.00195313 Z M86.9167969,7.02539062 C86.9167969,7.59570312 87.0691406,8.046875 87.3738281,8.37890625 C87.6863281,8.71484375 88.0984375,8.8828125 88.6101563,8.8828125 C89.1257813,8.8828125 89.5378906,8.71679688 89.8464844,8.38476562 C90.1550781,8.05273437 90.309375,7.609375 90.309375,7.0546875 C90.309375,6.5 90.1550781,6.05664063 89.8464844,5.72460938 C89.5339844,5.38867188 89.121875,5.22070312 88.6101563,5.22070312 C88.10625,5.22070312 87.6980469,5.38867188 87.3855469,5.72460938 C87.0730469,6.06054687 86.9167969,6.49414062 86.9167969,7.02539062 Z" id="Shape"></path>
                <path d="M99.6710937,9.76171875 C99.6710937,10.03125 99.6623047,10.2685547 99.6447266,10.4736328 C99.6271484,10.6787109 99.6027344,10.859375 99.5714844,11.015625 C99.4777344,11.4453125 99.2941406,11.8144531 99.0207031,12.1230469 C98.5050781,12.7167969 97.7960937,13.0136719 96.89375,13.0136719 C96.1320312,13.0136719 95.5050781,12.8085938 95.0128906,12.3984375 C94.5050781,11.9765625 94.2121094,11.3925781 94.1339844,10.6464844 L95.4582031,10.6464844 C95.5089844,10.9277344 95.5929687,11.1445312 95.7101562,11.296875 C95.9835937,11.6523438 96.3820312,11.8300781 96.9054687,11.8300781 C97.8703125,11.8300781 98.3527344,11.2382812 98.3527344,10.0546875 L98.3527344,9.2578125 C97.8292969,9.79296875 97.2257812,10.0605469 96.5421875,10.0605469 C95.7648437,10.0605469 95.128125,9.77929688 94.6320312,9.21679687 C94.1320312,8.64648438 93.8820312,7.93359375 93.8820312,7.078125 C93.8820312,6.24609375 94.1144531,5.5390625 94.5792969,4.95703125 C95.0792969,4.33984375 95.7394531,4.03125 96.5597656,4.03125 C97.2785156,4.03125 97.8761719,4.29882812 98.3527344,4.83398438 L98.3527344,4.18945312 L99.6710937,4.18945312 L99.6710937,9.76171875 Z M98.4054687,7.0546875 C98.4054687,6.5 98.2570312,6.05664062 97.9601562,5.72460938 C97.659375,5.38476562 97.2746094,5.21484375 96.8058594,5.21484375 C96.3058594,5.21484375 95.9113281,5.40039062 95.6222656,5.77148438 C95.3605469,6.10351563 95.2296875,6.53320313 95.2296875,7.06054688 C95.2296875,7.58007813 95.3605469,8.00585938 95.6222656,8.33789062 C95.9074219,8.70117188 96.3019531,8.8828125 96.8058594,8.8828125 C97.3097656,8.8828125 97.7082031,8.69921875 98.0011719,8.33203125 C98.2707031,8 98.4054687,7.57421875 98.4054687,7.0546875 Z" id="Shape"></path>
                <path d="M102.435156,4.18945312 L103.753516,4.18945312 L103.753516,4.69921875 C103.995703,4.4453125 104.210547,4.27148438 104.398047,4.17773438 C104.589453,4.08007812 104.816016,4.03125 105.077734,4.03125 C105.425391,4.03125 105.788672,4.14453125 106.167578,4.37109375 L105.564063,5.578125 C105.314063,5.3984375 105.069922,5.30859375 104.831641,5.30859375 C104.112891,5.30859375 103.753516,5.8515625 103.753516,6.9375 L103.753516,9.89648438 L102.435156,9.89648438 L102.435156,4.18945312 Z" id="Path"></path>
                <path d="M112.148438,4.18945312 L113.472656,4.18945312 L113.472656,9.89648438 L112.148438,9.89648438 L112.148438,9.29882813 C111.605469,9.80664063 111.021484,10.0605469 110.396484,10.0605469 C109.607422,10.0605469 108.955078,9.77539063 108.439453,9.20507812 C107.927734,8.62304688 107.671875,7.89648438 107.671875,7.02539062 C107.671875,6.16992187 107.927734,5.45703125 108.439453,4.88671875 C108.951172,4.31640625 109.591797,4.03125 110.361328,4.03125 C111.025391,4.03125 111.621094,4.3046875 112.148438,4.8515625 L112.148438,4.18945312 Z M109.019531,7.02539062 C109.019531,7.57226562 109.166016,8.01757812 109.458984,8.36132812 C109.759766,8.70898437 110.138672,8.8828125 110.595703,8.8828125 C111.083984,8.8828125 111.478516,8.71484375 111.779297,8.37890625 C112.080078,8.03125 112.230469,7.58984375 112.230469,7.0546875 C112.230469,6.51953125 112.080078,6.078125 111.779297,5.73046875 C111.478516,5.390625 111.087891,5.22070312 110.607422,5.22070312 C110.154297,5.22070312 109.775391,5.39257812 109.470703,5.73632812 C109.169922,6.08398437 109.019531,6.51367188 109.019531,7.02539062 Z" id="Shape"></path>
                <path d="M117.555078,13.0019531 L116.236719,13.0019531 L116.236719,4.18945312 L117.555078,4.18945312 L117.555078,4.81054688 C118.074609,4.29101562 118.664453,4.03125 119.324609,4.03125 C120.109766,4.03125 120.75625,4.3203125 121.264062,4.8984375 C121.779687,5.47265625 122.0375,6.19726563 122.0375,7.07226563 C122.0375,7.92773438 121.781641,8.640625 121.269922,9.2109375 C120.762109,9.77734375 120.121484,10.0605469 119.348047,10.0605469 C118.680078,10.0605469 118.082422,9.79296875 117.555078,9.2578125 L117.555078,13.0019531 Z M120.689844,7.078125 C120.689844,6.53125 120.541406,6.0859375 120.244531,5.7421875 C119.94375,5.39453125 119.564844,5.22070312 119.107812,5.22070312 C118.623437,5.22070312 118.230859,5.38867188 117.930078,5.72460938 C117.629297,6.06054687 117.478906,6.50195313 117.478906,7.04882812 C117.478906,7.58398437 117.629297,8.02539063 117.930078,8.37304688 C118.226953,8.71289062 118.617578,8.8828125 119.101953,8.8828125 C119.558984,8.8828125 119.935937,8.7109375 120.232812,8.3671875 C120.5375,8.0234375 120.689844,7.59375 120.689844,7.078125 Z" id="Shape"></path>
                <path d="M124.532031,0 L125.850391,0 L125.850391,4.6640625 C126.319141,4.2421875 126.836719,4.03125 127.403125,4.03125 C128.047656,4.03125 128.563281,4.24023438 128.95,4.65820312 C129.278125,5.02148438 129.442187,5.6015625 129.442187,6.3984375 L129.442187,9.89648438 L128.123828,9.89648438 L128.123828,6.52148437 C128.123828,6.06445313 128.042773,5.73339844 127.880664,5.52832031 C127.718555,5.32324219 127.457813,5.22070313 127.098438,5.22070313 C126.6375,5.22070313 126.313281,5.36328125 126.125781,5.6484375 C125.942188,5.9375 125.850391,6.43359375 125.850391,7.13671875 L125.850391,9.89648438 L124.532031,9.89648438 L124.532031,0 Z" id="Path"></path>
            </g>
            <g id="Spectrogram-Visualiz-Copy" transform="translate(359.6145, 2.7529)" fill="#FFFFFF" fill-rule="nonzero" opacity="0.4">
                <path d="M4.63867187,1.83105469 L3.71582031,2.37792969 C3.54329427,2.07845052 3.37890625,1.88313802 3.22265625,1.79199219 C3.05989583,1.68782552 2.8499349,1.63574219 2.59277344,1.63574219 C2.27701823,1.63574219 2.01497396,1.72526042 1.80664062,1.90429687 C1.59830729,2.08007813 1.49414062,2.30143229 1.49414062,2.56835938 C1.49414062,2.93619792 1.76757812,3.23242188 2.31445312,3.45703125 L3.06640625,3.76464844 C3.67838542,4.01204427 4.12597656,4.31396484 4.40917969,4.67041016 C4.69238281,5.02685547 4.83398437,5.46386719 4.83398437,5.98144531 C4.83398437,6.67480469 4.60286458,7.24772135 4.140625,7.70019531 C3.67513021,8.15592448 3.09733073,8.38378906 2.40722656,8.38378906 C1.75292969,8.38378906 1.2125651,8.19010417 0.786132812,7.80273438 C0.366210937,7.41536458 0.104166667,6.87011719 -5.68434189e-14,6.16699219 L1.15234375,5.91308594 C1.20442708,6.35579427 1.29557292,6.66178385 1.42578125,6.83105469 C1.66015625,7.15657552 2.00195312,7.31933594 2.45117187,7.31933594 C2.80598958,7.31933594 3.10058594,7.20052083 3.33496094,6.96289063 C3.56933594,6.72526042 3.68652344,6.42415365 3.68652344,6.05957031 C3.68652344,5.91308594 3.66617839,5.77880859 3.62548828,5.65673828 C3.58479818,5.53466797 3.52132161,5.42236328 3.43505859,5.31982422 C3.34879557,5.21728516 3.23730469,5.12125651 3.10058594,5.03173828 C2.96386719,4.94222005 2.80110677,4.85677083 2.61230469,4.77539063 L1.88476562,4.47265625 C0.852864583,4.03645833 0.336914062,3.3984375 0.336914062,2.55859375 C0.336914062,1.9921875 0.553385417,1.51855469 0.986328125,1.13769531 C1.41927083,0.753580729 1.95800781,0.561523438 2.60253906,0.561523438 C3.47167969,0.561523438 4.15039062,0.984700521 4.63867187,1.83105469 Z" id="Path"></path>
                <path d="M8.19472656,10.8349609 L7.09609375,10.8349609 L7.09609375,3.49121094 L8.19472656,3.49121094 L8.19472656,4.00878906 C8.62766927,3.57584635 9.11920573,3.359375 9.66933594,3.359375 C10.3236328,3.359375 10.8623698,3.60026042 11.2855469,4.08203125 C11.7152344,4.56054688 11.9300781,5.16438802 11.9300781,5.89355469 C11.9300781,6.60644531 11.716862,7.20052083 11.2904297,7.67578125 C10.8672526,8.14778646 10.3333984,8.38378906 9.68886719,8.38378906 C9.13222656,8.38378906 8.63417969,8.16080729 8.19472656,7.71484375 L8.19472656,10.8349609 Z M10.8070312,5.8984375 C10.8070312,5.44270833 10.6833333,5.07161458 10.4359375,4.78515625 C10.1852865,4.49544271 9.86953125,4.35058594 9.48867187,4.35058594 C9.08502604,4.35058594 8.7578776,4.4905599 8.50722656,4.77050781 C8.25657552,5.05045573 8.13125,5.41829427 8.13125,5.87402344 C8.13125,6.31998698 8.25657552,6.68782552 8.50722656,6.97753906 C8.7546224,7.26074219 9.08014323,7.40234375 9.48378906,7.40234375 C9.86464844,7.40234375 10.178776,7.25911458 10.4261719,6.97265625 C10.6800781,6.68619792 10.8070312,6.328125 10.8070312,5.8984375 Z" id="Shape"></path>
                <path d="M18.5232422,6.12792969 L15.1150391,6.12792969 C15.1443359,6.51855469 15.2712891,6.82942708 15.4958984,7.06054687 C15.7205078,7.28841146 16.0085937,7.40234375 16.3601562,7.40234375 C16.6335937,7.40234375 16.8598307,7.33723958 17.0388672,7.20703125 C17.2146484,7.07682292 17.4148437,6.8359375 17.6394531,6.484375 L18.5671875,7.00195312 C18.4239583,7.24609375 18.2725911,7.45524089 18.1130859,7.62939453 C17.9535807,7.80354818 17.7826823,7.94677734 17.6003906,8.05908203 C17.418099,8.17138672 17.2211589,8.25358073 17.0095703,8.30566406 C16.7979818,8.3577474 16.5684896,8.38378906 16.3210937,8.38378906 C15.6114583,8.38378906 15.0417969,8.15592448 14.6121094,7.70019531 C14.1824219,7.24121094 13.9675781,6.63248698 13.9675781,5.87402344 C13.9675781,5.12207031 14.1759115,4.51334635 14.5925781,4.04785156 C15.0125,3.58886719 15.5691406,3.359375 16.2625,3.359375 C16.9623698,3.359375 17.5157552,3.58235677 17.9226562,4.02832031 C18.3263021,4.47102865 18.528125,5.08463542 18.528125,5.86914062 L18.5232422,6.12792969 Z M17.3953125,5.22949219 C17.2423177,4.64355469 16.8728516,4.35058594 16.2869141,4.35058594 C16.1534505,4.35058594 16.028125,4.37093099 15.9109375,4.41162109 C15.79375,4.4523112 15.6871419,4.51090495 15.5911133,4.58740234 C15.4950846,4.66389974 15.4128906,4.75585938 15.3445312,4.86328125 C15.2761719,4.97070312 15.2240885,5.09277344 15.1882812,5.22949219 L17.3953125,5.22949219 Z" id="Shape"></path>
                <path d="M24.5255859,3.69628906 L24.5255859,5.15625 C24.2749349,4.85026042 24.0503255,4.64029948 23.8517578,4.52636719 C23.6564453,4.40917969 23.4269531,4.35058594 23.1632813,4.35058594 C22.7498698,4.35058594 22.4064453,4.49544271 22.1330078,4.78515625 C21.8595703,5.07486979 21.7228516,5.43782552 21.7228516,5.87402344 C21.7228516,6.31998698 21.8546875,6.68619792 22.1183594,6.97265625 C22.3852865,7.25911458 22.7254557,7.40234375 23.1388672,7.40234375 C23.4025391,7.40234375 23.6352865,7.3453776 23.8371094,7.23144531 C24.0324219,7.12076823 24.2619141,6.90592448 24.5255859,6.58691406 L24.5255859,8.03710937 C24.0796224,8.26822917 23.6336589,8.38378906 23.1876953,8.38378906 C22.4520182,8.38378906 21.8367839,8.14615885 21.3419922,7.67089844 C20.8472005,7.19238281 20.5998047,6.59830729 20.5998047,5.88867188 C20.5998047,5.17903646 20.8504557,4.58007813 21.3517578,4.09179688 C21.8530599,3.60351562 22.4682943,3.359375 23.1974609,3.359375 C23.6662109,3.359375 24.1089193,3.47167969 24.5255859,3.69628906 Z" id="Path"></path>
                <polygon id="Path" points="27.8228516 4.51660156 27.8228516 8.24707031 26.7242187 8.24707031 26.7242187 4.51660156 26.2554687 4.51660156 26.2554687 3.49121094 26.7242187 3.49121094 26.7242187 1.74804688 27.8228516 1.74804688 27.8228516 3.49121094 28.6773437 3.49121094 28.6773437 4.51660156"></polygon>
                <path d="M30.5244141,3.49121094 L31.6230469,3.49121094 L31.6230469,3.91601563 C31.8248698,3.70442708 32.0039062,3.55957031 32.1601562,3.48144531 C32.3196615,3.4000651 32.5084635,3.359375 32.7265625,3.359375 C33.016276,3.359375 33.3190104,3.45377604 33.6347656,3.64257812 L33.1318359,4.6484375 C32.9235026,4.49869792 32.7200521,4.42382813 32.5214844,4.42382813 C31.922526,4.42382813 31.6230469,4.87630208 31.6230469,5.78125 L31.6230469,8.24707031 L30.5244141,8.24707031 L30.5244141,3.49121094 Z" id="Path"></path>
                <path d="M35.0521484,5.83496094 C35.0521484,5.14811198 35.2979167,4.56380208 35.7894531,4.08203125 C36.2809896,3.60026042 36.8799479,3.359375 37.5863281,3.359375 C38.2959635,3.359375 38.8981771,3.60188802 39.3929688,4.08691406 C39.88125,4.5719401 40.1253906,5.16764323 40.1253906,5.87402344 C40.1253906,6.58691406 39.8796224,7.18424479 39.3880859,7.66601562 C38.8932943,8.14453125 38.2861979,8.38378906 37.5667969,8.38378906 C36.8539063,8.38378906 36.2565755,8.13964844 35.7748047,7.65136719 C35.2930339,7.16959635 35.0521484,6.5641276 35.0521484,5.83496094 Z M36.1751953,5.85449219 C36.1751953,6.3297526 36.3021484,6.70572917 36.5560547,6.98242188 C36.8164714,7.26236979 37.1598958,7.40234375 37.5863281,7.40234375 C38.0160156,7.40234375 38.3594401,7.2639974 38.6166016,6.98730469 C38.873763,6.71061198 39.0023438,6.34114583 39.0023438,5.87890625 C39.0023438,5.41666667 38.873763,5.04720052 38.6166016,4.77050781 C38.3561849,4.4905599 38.0127604,4.35058594 37.5863281,4.35058594 C37.1664063,4.35058594 36.826237,4.4905599 36.5658203,4.77050781 C36.3054036,5.05045573 36.1751953,5.41178385 36.1751953,5.85449219 Z" id="Shape"></path>
                <path d="M46.9871094,8.13476562 C46.9871094,8.359375 46.9797852,8.55712891 46.9651367,8.72802734 C46.9504883,8.89892578 46.9301432,9.04947917 46.9041016,9.1796875 C46.8259766,9.53776042 46.6729818,9.8453776 46.4451172,10.1025391 C46.0154297,10.5973307 45.4246094,10.8447266 44.6726562,10.8447266 C44.0378906,10.8447266 43.5154297,10.6738281 43.1052734,10.3320313 C42.6820964,9.98046875 42.4379557,9.4938151 42.3728516,8.87207031 L43.4763672,8.87207031 C43.5186849,9.10644531 43.5886719,9.28710938 43.6863281,9.4140625 C43.9141927,9.71028646 44.246224,9.85839844 44.6824219,9.85839844 C45.4864583,9.85839844 45.8884766,9.36523438 45.8884766,8.37890625 L45.8884766,7.71484375 C45.4522786,8.16080729 44.949349,8.38378906 44.3796875,8.38378906 C43.731901,8.38378906 43.2013021,8.14941406 42.7878906,7.68066406 C42.371224,7.20540365 42.1628906,6.61132812 42.1628906,5.8984375 C42.1628906,5.20507812 42.3565755,4.61588542 42.7439453,4.13085938 C43.160612,3.61653646 43.7107422,3.359375 44.3943359,3.359375 C44.9932943,3.359375 45.4913411,3.58235677 45.8884766,4.02832031 L45.8884766,3.49121094 L46.9871094,3.49121094 L46.9871094,8.13476562 Z M45.9324219,5.87890625 C45.9324219,5.41666667 45.808724,5.04720052 45.5613281,4.77050781 C45.3106771,4.48730469 44.9900391,4.34570312 44.5994141,4.34570312 C44.1827474,4.34570312 43.8539714,4.50032552 43.6130859,4.80957031 C43.394987,5.08626302 43.2859375,5.44433594 43.2859375,5.88378906 C43.2859375,6.31673177 43.394987,6.67154948 43.6130859,6.94824219 C43.8507161,7.25097656 44.1794922,7.40234375 44.5994141,7.40234375 C45.0193359,7.40234375 45.3513672,7.24934896 45.5955078,6.94335937 C45.8201172,6.66666667 45.9324219,6.31184896 45.9324219,5.87890625 Z" id="Shape"></path>
                <path d="M49.4738281,3.49121094 L50.5724609,3.49121094 L50.5724609,3.91601563 C50.7742839,3.70442708 50.9533203,3.55957031 51.1095703,3.48144531 C51.2690755,3.4000651 51.4578776,3.359375 51.6759766,3.359375 C51.9656901,3.359375 52.2684245,3.45377604 52.5841797,3.64257812 L52.08125,4.6484375 C51.8729167,4.49869792 51.6694661,4.42382813 51.4708984,4.42382813 C50.8719401,4.42382813 50.5724609,4.87630208 50.5724609,5.78125 L50.5724609,8.24707031 L49.4738281,8.24707031 L49.4738281,3.49121094 Z" id="Path"></path>
                <path d="M57.7515625,3.49121094 L58.8550781,3.49121094 L58.8550781,8.24707031 L57.7515625,8.24707031 L57.7515625,7.74902344 C57.2990885,8.17220052 56.8124349,8.38378906 56.2916016,8.38378906 C55.6340495,8.38378906 55.0904297,8.14615885 54.6607422,7.67089844 C54.2343099,7.1858724 54.0210937,6.58040365 54.0210937,5.85449219 C54.0210937,5.14160156 54.2343099,4.54752604 54.6607422,4.07226562 C55.0871745,3.59700521 55.6210286,3.359375 56.2623047,3.359375 C56.8156901,3.359375 57.3121094,3.58723958 57.7515625,4.04296875 L57.7515625,3.49121094 Z M55.1441406,5.85449219 C55.1441406,6.31022135 55.2662109,6.6813151 55.5103516,6.96777344 C55.7610026,7.25748698 56.0767578,7.40234375 56.4576172,7.40234375 C56.8645182,7.40234375 57.1932943,7.26236979 57.4439453,6.98242188 C57.6945964,6.69270833 57.8199219,6.32486979 57.8199219,5.87890625 C57.8199219,5.43294271 57.6945964,5.06510417 57.4439453,4.77539062 C57.1932943,4.4921875 56.8677734,4.35058594 56.4673828,4.35058594 C56.0897786,4.35058594 55.7740234,4.4938151 55.5201172,4.78027344 C55.2694661,5.06998698 55.1441406,5.4280599 55.1441406,5.85449219 Z" id="Shape"></path>
                <path d="M61.3417969,3.49121094 L62.4404297,3.49121094 L62.4404297,3.93066406 C62.6520182,3.7093099 62.8326823,3.55957031 62.9824219,3.48144531 C63.1419271,3.4000651 63.3421224,3.359375 63.5830078,3.359375 C64.1201172,3.359375 64.5449219,3.59375 64.8574219,4.0625 C65.202474,3.59375 65.6695964,3.359375 66.2587891,3.359375 C67.3297526,3.359375 67.8652344,4.00878906 67.8652344,5.30761719 L67.8652344,8.24707031 L66.7617187,8.24707031 L66.7617187,5.60546875 C66.7617187,5.14973958 66.7063802,4.82747396 66.5957031,4.63867188 C66.4817708,4.44661458 66.2945964,4.35058594 66.0341797,4.35058594 C65.7314453,4.35058594 65.5109049,4.46451823 65.3725586,4.69238281 C65.2342122,4.9202474 65.1650391,5.28645833 65.1650391,5.79101563 L65.1650391,8.24707031 L64.0615234,8.24707031 L64.0615234,5.62011719 C64.0615234,4.77376302 63.8173828,4.35058594 63.3291016,4.35058594 C63.0198568,4.35058594 62.7944336,4.46614583 62.652832,4.69726563 C62.5112305,4.92838542 62.4404297,5.29296875 62.4404297,5.79101563 L62.4404297,8.24707031 L61.3417969,8.24707031 L61.3417969,3.49121094 Z" id="Path"></path>
                <polygon id="Path" points="75.1287109 0.708007812 77.2136719 5.93261719 79.3279297 0.708007812 80.5730469 0.708007812 77.1892578 8.81347656 73.8835937 0.708007812"></polygon>
                <path d="M83.596875,3.49121094 L83.596875,8.24707031 L82.4982422,8.24707031 L82.4982422,3.49121094 L83.596875,3.49121094 Z M82.3322266,1.51367187 C82.3322266,1.32161458 82.4022135,1.15559896 82.5421875,1.015625 C82.6821615,0.875651042 82.8498047,0.805664062 83.0451172,0.805664062 C83.2436849,0.805664062 83.4129557,0.875651042 83.5529297,1.015625 C83.6929036,1.15234375 83.7628906,1.31998698 83.7628906,1.51855469 C83.7628906,1.7171224 83.6929036,1.88639323 83.5529297,2.02636719 C83.4162109,2.16634115 83.2485677,2.23632812 83.05,2.23632812 C82.8514323,2.23632812 82.6821615,2.16634115 82.5421875,2.02636719 C82.4022135,1.88639323 82.3322266,1.71549479 82.3322266,1.51367187 Z" id="Shape"></path>
                <path d="M88.8521484,4.30175781 L87.9439453,4.78515625 C87.8007161,4.4921875 87.6233073,4.34570312 87.4117187,4.34570312 C87.3108073,4.34570312 87.2245443,4.37906901 87.1529297,4.44580078 C87.0813151,4.51253255 87.0455078,4.59798177 87.0455078,4.70214844 C87.0455078,4.8844401 87.2570964,5.06510417 87.6802734,5.24414063 C88.2629557,5.49479167 88.6552083,5.72591146 88.8570312,5.9375 C89.0588542,6.14908854 89.1597656,6.43391927 89.1597656,6.79199219 C89.1597656,7.25097656 88.9904948,7.63509115 88.6519531,7.94433594 C88.3231771,8.23730469 87.9260417,8.38378906 87.4605469,8.38378906 C86.6630208,8.38378906 86.0982422,7.99479167 85.7662109,7.21679688 L86.7037109,6.78222656 C86.8339193,7.01009115 86.9332031,7.15494792 87.0015625,7.21679688 C87.135026,7.34049479 87.2945312,7.40234375 87.4800781,7.40234375 C87.8511719,7.40234375 88.0367187,7.23307292 88.0367187,6.89453125 C88.0367187,6.69921875 87.8934896,6.51692708 87.6070312,6.34765625 C87.4963542,6.29231771 87.3856771,6.23860677 87.275,6.18652344 C87.1643229,6.1344401 87.0520182,6.08072917 86.9380859,6.02539062 C86.6190755,5.86914062 86.3944661,5.71289062 86.2642578,5.55664063 C86.0982422,5.35807292 86.0152344,5.10253906 86.0152344,4.79003906 C86.0152344,4.3766276 86.1568359,4.03483073 86.4400391,3.76464844 C86.7297526,3.49446615 87.0813151,3.359375 87.4947266,3.359375 C88.1034505,3.359375 88.5559245,3.6735026 88.8521484,4.30175781 Z" id="Path"></path>
                <path d="M92.3447266,3.49121094 L92.3447266,6.22070312 C92.3447266,7.00846354 92.655599,7.40234375 93.2773437,7.40234375 C93.8990885,7.40234375 94.2099609,7.00846354 94.2099609,6.22070312 L94.2099609,3.49121094 L95.3085937,3.49121094 L95.3085937,6.24511719 C95.3085937,6.62597656 95.2613932,6.9547526 95.1669922,7.23144531 C95.0758464,7.47884115 94.9179687,7.70182292 94.6933594,7.90039062 C94.3222656,8.22265625 93.8502604,8.38378906 93.2773437,8.38378906 C92.7076823,8.38378906 92.2373047,8.22265625 91.8662109,7.90039062 C91.6383464,7.70182292 91.4772135,7.47884115 91.3828125,7.23144531 C91.2916667,7.01009115 91.2460937,6.6813151 91.2460937,6.24511719 L91.2460937,3.49121094 L92.3447266,3.49121094 Z" id="Path"></path>
                <path d="M101.301172,3.49121094 L102.404687,3.49121094 L102.404687,8.24707031 L101.301172,8.24707031 L101.301172,7.74902344 C100.848698,8.17220052 100.362044,8.38378906 99.8412109,8.38378906 C99.1836589,8.38378906 98.6400391,8.14615885 98.2103516,7.67089844 C97.7839193,7.1858724 97.5707031,6.58040365 97.5707031,5.85449219 C97.5707031,5.14160156 97.7839193,4.54752604 98.2103516,4.07226562 C98.6367839,3.59700521 99.170638,3.359375 99.8119141,3.359375 C100.365299,3.359375 100.861719,3.58723958 101.301172,4.04296875 L101.301172,3.49121094 Z M98.69375,5.85449219 C98.69375,6.31022135 98.8158203,6.6813151 99.0599609,6.96777344 C99.310612,7.25748698 99.6263672,7.40234375 100.007227,7.40234375 C100.414128,7.40234375 100.742904,7.26236979 100.993555,6.98242188 C101.244206,6.69270833 101.369531,6.32486979 101.369531,5.87890625 C101.369531,5.43294271 101.244206,5.06510417 100.993555,4.77539062 C100.742904,4.4921875 100.417383,4.35058594 100.016992,4.35058594 C99.639388,4.35058594 99.3236328,4.4938151 99.0697266,4.78027344 C98.8190755,5.06998698 98.69375,5.4280599 98.69375,5.85449219 Z" id="Shape"></path>
                <polygon id="Path" points="105.990039 0 105.990039 8.24707031 104.891406 8.24707031 104.891406 0"></polygon>
                <path d="M109.580273,3.49121094 L109.580273,8.24707031 L108.481641,8.24707031 L108.481641,3.49121094 L109.580273,3.49121094 Z M108.315625,1.51367187 C108.315625,1.32161458 108.385612,1.15559896 108.525586,1.015625 C108.66556,0.875651042 108.833203,0.805664062 109.028516,0.805664062 C109.227083,0.805664062 109.396354,0.875651042 109.536328,1.015625 C109.676302,1.15234375 109.746289,1.31998698 109.746289,1.51855469 C109.746289,1.7171224 109.676302,1.88639323 109.536328,2.02636719 C109.399609,2.16634115 109.231966,2.23632812 109.033398,2.23632812 C108.834831,2.23632812 108.66556,2.16634115 108.525586,2.02636719 C108.385612,1.88639323 108.315625,1.71549479 108.315625,1.51367187 Z" id="Shape"></path>
                <polygon id="Path" points="113.649023 7.21191406 116.476172 7.21191406 116.476172 8.24707031 111.471289 8.24707031 114.552344 4.51660156 112.125586 4.51660156 112.125586 3.49121094 116.725195 3.49121094"></polygon>
                <path d="M122.9375,6.12792969 L119.529297,6.12792969 C119.558594,6.51855469 119.685547,6.82942708 119.910156,7.06054687 C120.134766,7.28841146 120.422852,7.40234375 120.774414,7.40234375 C121.047852,7.40234375 121.274089,7.33723958 121.453125,7.20703125 C121.628906,7.07682292 121.829102,6.8359375 122.053711,6.484375 L122.981445,7.00195312 C122.838216,7.24609375 122.686849,7.45524089 122.527344,7.62939453 C122.367839,7.80354818 122.19694,7.94677734 122.014648,8.05908203 C121.832357,8.17138672 121.635417,8.25358073 121.423828,8.30566406 C121.21224,8.3577474 120.982747,8.38378906 120.735352,8.38378906 C120.025716,8.38378906 119.456055,8.15592448 119.026367,7.70019531 C118.59668,7.24121094 118.381836,6.63248698 118.381836,5.87402344 C118.381836,5.12207031 118.590169,4.51334635 119.006836,4.04785156 C119.426758,3.58886719 119.983398,3.359375 120.676758,3.359375 C121.376628,3.359375 121.930013,3.58235677 122.336914,4.02832031 C122.74056,4.47102865 122.942383,5.08463542 122.942383,5.86914062 L122.9375,6.12792969 Z M121.80957,5.22949219 C121.656576,4.64355469 121.287109,4.35058594 120.701172,4.35058594 C120.567708,4.35058594 120.442383,4.37093099 120.325195,4.41162109 C120.208008,4.4523112 120.1014,4.51090495 120.005371,4.58740234 C119.909342,4.66389974 119.827148,4.75585938 119.758789,4.86328125 C119.69043,4.97070312 119.638346,5.09277344 119.602539,5.22949219 L121.80957,5.22949219 Z" id="Shape"></path>
                <path d="M125.238672,3.49121094 L126.337305,3.49121094 L126.337305,3.91601563 C126.539128,3.70442708 126.718164,3.55957031 126.874414,3.48144531 C127.033919,3.4000651 127.222721,3.359375 127.44082,3.359375 C127.730534,3.359375 128.033268,3.45377604 128.349023,3.64257812 L127.846094,4.6484375 C127.63776,4.49869792 127.43431,4.42382813 127.235742,4.42382813 C126.636784,4.42382813 126.337305,4.87630208 126.337305,5.78125 L126.337305,8.24707031 L125.238672,8.24707031 L125.238672,3.49121094 Z" id="Path"></path>
            </g>
        </g>
        <g id="Run" transform="translate(13.105, 317.46)" fill="#FFFFFF" fill-rule="nonzero">
            <g id="Run-Copy">
                <path d="M1.96,3.37 L2.33,3.37 C2.71666667,3.37 3.01333333,3.29 3.22,3.13 C3.42666667,2.97 3.53,2.74 3.53,2.44 C3.53,2.14 3.42666667,1.91 3.22,1.75 C3.01333333,1.59 2.71666667,1.51 2.33,1.51 L1.96,1.51 L1.96,3.37 Z M6.27,7.54 L3.83,7.54 L1.96,4.64 L1.96,7.54 L0,7.54 L0,0 L3.05,0 C3.47,0 3.83666667,0.0616666667 4.15,0.185 C4.46333333,0.308333333 4.72166667,0.476666667 4.925,0.69 C5.12833333,0.903333333 5.28166667,1.15 5.385,1.43 C5.48833333,1.71 5.54,2.01 5.54,2.33 C5.54,2.90333333 5.40166667,3.36833333 5.125,3.725 C4.84833333,4.08166667 4.44,4.32333333 3.9,4.45 L6.27,7.54 Z" id="Shape"></path>
                <path d="M8.68,2.41 L8.68,5.3 C8.68,5.93333333 8.98666667,6.25 9.6,6.25 C10.2133333,6.25 10.52,5.93333333 10.52,5.3 L10.52,2.41 L12.33,2.41 L12.33,5.65 C12.33,6.34333333 12.1016667,6.86333333 11.645,7.21 C11.1883333,7.55666667 10.5066667,7.73 9.6,7.73 C8.69333333,7.73 8.01166667,7.55666667 7.555,7.21 C7.09833333,6.86333333 6.87,6.34333333 6.87,5.65 L6.87,2.41 L8.68,2.41 Z" id="Path"></path>
                <path d="M13.56,2.41 L15.37,2.41 L15.37,3.06 C15.6166667,2.76 15.8666667,2.55833333 16.12,2.455 C16.3733333,2.35166667 16.67,2.3 17.01,2.3 C17.37,2.3 17.6783333,2.35833333 17.935,2.475 C18.1916667,2.59166667 18.41,2.75666667 18.59,2.97 C18.7366667,3.14333333 18.8366667,3.33666667 18.89,3.55 C18.9433333,3.76333333 18.97,4.00666667 18.97,4.28 L18.97,7.54 L17.16,7.54 L17.16,4.95 C17.16,4.69666667 17.1416667,4.49166667 17.105,4.335 C17.0683333,4.17833333 17.0033333,4.05333333 16.91,3.96 C16.83,3.88 16.74,3.82333333 16.64,3.79 C16.54,3.75666667 16.4333333,3.74 16.32,3.74 C16.0133333,3.74 15.7783333,3.83166667 15.615,4.015 C15.4516667,4.19833333 15.37,4.46 15.37,4.8 L15.37,7.54 L13.56,7.54 L13.56,2.41 Z" id="Path"></path>
            </g>
        </g>
        <g id="Input" transform="translate(18, 40)" fill="#E6E6E6">
            <rect id="Rectangle" x="0" y="0" width="8" height="37"></rect>
        </g>
    </g>
</svg>