<?xml version="1.0" encoding="UTF-8"?>
<svg width="525px" height="380px" viewBox="0 0 525 380" version="1.1" xmlns="http://www.w3.org/2000/svg" xmlns:xlink="http://www.w3.org/1999/xlink">
    <title>Spectrogram-Dark</title>
    <g id="Spectrogram-Dark" stroke="none" stroke-width="1" fill="none" fill-rule="evenodd">
        <g id="Panel">
            <rect fill="#000000" fill-rule="nonzero" x="0" y="0" width="525" height="380" rx="5"></rect>
            <g id="Brand/Dark/MediumWithLogo" transform="translate(202.1811, 365.3448)" fill="#FFFFFF">
                <g id="Logo/Icon/LightMode" transform="translate(0, 1.5372)">
                    <g id="Icon" transform="translate(-0, 0)">
                        <path d="M11.3937904,0 L11.3937904,9.18455578 C11.3937904,10.3236883 10.4702552,11.2471377 9.33101685,11.2471377 L0,11.2471377 L0,0 L11.3937904,0 Z M10.5444131,0.849298421 L0.849377347,0.849298421 L0.849377347,10.3978392 L9.33101685,10.3978392 C9.99445567,10.3978392 10.5335353,9.86544352 10.5442505,9.20461964 L10.5444131,9.18455578 L10.5444131,0.849298421 Z" id="Rectangle-Copy" fill-rule="nonzero"></path>
                        <path d="M2.52129916,1.34243669 C3.18482756,1.34243669 3.7227236,1.88033273 3.7227236,2.54386113 C3.7227236,3.20738952 3.18482756,3.74528556 2.52129916,3.74528556 C1.85777077,3.74528556 1.31987473,3.20738952 1.31987473,2.54386113 C1.31987473,1.88033273 1.85777077,1.34243669 2.52129916,1.34243669 Z M2.52129916,2.07057271 C2.25990919,2.07057271 2.04801075,2.28247115 2.04801075,2.54386113 C2.04801075,2.8052511 2.25990919,3.01714954 2.52129916,3.01714954 C2.78268914,3.01714954 2.99458758,2.8052511 2.99458758,2.54386113 C2.99458758,2.28247115 2.78268914,2.07057271 2.52129916,2.07057271 Z" id="Oval-Copy-8" fill-rule="nonzero"></path>
                        <path d="M2.52129916,7.5018521 C3.18482756,7.5018521 3.7227236,8.03974814 3.7227236,8.70327654 C3.7227236,9.36680493 3.18482756,9.90470097 2.52129916,9.90470097 C1.85777077,9.90470097 1.31987473,9.36680493 1.31987473,8.70327654 C1.31987473,8.03974814 1.85777077,7.5018521 2.52129916,7.5018521 Z M2.52129916,8.22998812 C2.25990919,8.22998812 2.04801075,8.44188656 2.04801075,8.70327654 C2.04801075,8.96466651 2.25990919,9.17656495 2.52129916,9.17656495 C2.78268914,9.17656495 2.99458758,8.96466651 2.99458758,8.70327654 C2.99458758,8.44188656 2.78268914,8.22998812 2.52129916,8.22998812 Z" id="Oval-Copy-7" fill-rule="nonzero"></path>
                        <path d="M8.87249124,7.5018521 C9.53601964,7.5018521 10.0739157,8.03974814 10.0739157,8.70327654 C10.0739157,9.36680493 9.53601964,9.90470097 8.87249124,9.90470097 C8.20896285,9.90470097 7.67106681,9.36680493 7.67106681,8.70327654 C7.67106681,8.03974814 8.20896285,7.5018521 8.87249124,7.5018521 Z M8.87249124,8.22998812 C8.61110127,8.22998812 8.39920283,8.44188656 8.39920283,8.70327654 C8.39920283,8.96466651 8.61110127,9.17656495 8.87249124,9.17656495 C9.13388122,9.17656495 9.34577966,8.96466651 9.34577966,8.70327654 C9.34577966,8.44188656 9.13388122,8.22998812 8.87249124,8.22998812 Z" id="Oval-Copy-6" fill-rule="nonzero"></path>
                        <path d="M8.87249124,1.34243669 C9.53601964,1.34243669 10.0739157,1.88033273 10.0739157,2.54386113 C10.0739157,3.20738952 9.53601964,3.74528556 8.87249124,3.74528556 C8.20896285,3.74528556 7.67106681,3.20738952 7.67106681,2.54386113 C7.67106681,1.88033273 8.20896285,1.34243669 8.87249124,1.34243669 Z M8.87249124,2.07057271 C8.61110127,2.07057271 8.39920283,2.28247115 8.39920283,2.54386113 C8.39920283,2.8052511 8.61110127,3.01714954 8.87249124,3.01714954 C9.13388122,3.01714954 9.34577966,2.8052511 9.34577966,2.54386113 C9.34577966,2.28247115 9.13388122,2.07057271 8.87249124,2.07057271 Z" id="Oval-Copy-5" fill-rule="nonzero"></path>
                        <polygon id="Line-Copy" fill-rule="nonzero" points="3.30597584 2.7131047 3.58484142 2.9926188 8.43566308 7.85472144 8.71452865 8.13423554 8.15550045 8.69196669 7.87663488 8.41245259 3.02581322 3.55034995 2.74694764 3.27083585"></polygon>
                        <circle id="Oval" cx="2.52129916" cy="5.7025357" r="1.20142443"></circle>
                        <circle id="Oval" cx="5.60100687" cy="8.70327654" r="1.20142443"></circle>
                        <circle id="Oval" cx="8.87249124" cy="5.7025357" r="1.20142443"></circle>
                        <circle id="Oval" cx="5.73637864" cy="2.54386113" r="1.20142443"></circle>
                    </g>
                </g>
                <g id="Brand/Dark/Medium" transform="translate(12.3348, 0)">
                    <g id="Flattened" transform="translate(0.6109, 1.5569)">
                        <path d="M4.90310345,5.59482759 L4.00793103,3.04155172 L3.11275862,5.59482759 L4.90310345,5.59482759 Z M5.43206897,7.11051724 L2.5837931,7.11051724 L2.12603448,8.44310345 L0,8.44310345 L2.91948276,0.773103448 L5.09637931,0.773103448 L8.01586207,8.44310345 L5.88982759,8.44310345 L5.43206897,7.11051724 Z" id="Shape" fill-rule="nonzero"></path>
                        <path d="M9.51931034,3.22465517 L11.3605172,3.22465517 L11.3605172,4.07913793 C11.5571839,3.76718391 11.797931,3.52813218 12.0827586,3.36198276 C12.3675862,3.19583333 12.6998851,3.11275862 13.0796552,3.11275862 C13.1271264,3.11275862 13.1796839,3.11275862 13.2373276,3.11275862 C13.2949713,3.11275862 13.361092,3.11954023 13.4356897,3.13310345 L13.4356897,4.89293103 C13.1915517,4.77086207 12.927069,4.70982759 12.6422414,4.70982759 C12.215,4.70982759 11.894569,4.83698276 11.6809483,5.0912931 C11.4673276,5.34560345 11.3605172,5.71689655 11.3605172,6.20517241 L11.3605172,8.44310345 L9.51931034,8.44310345 L9.51931034,3.22465517 Z" id="Path" fill-rule="nonzero"></path>
                        <path d="M14.9493103,0 L16.7905172,0 L16.7905172,3.88586207 C17.0414368,3.58068966 17.2957471,3.37554598 17.5534483,3.27043103 C17.8111494,3.16531609 18.112931,3.11275862 18.4587931,3.11275862 C19.1166092,3.11275862 19.6133621,3.29416667 19.9490517,3.65698276 C20.2847414,4.01979885 20.4525862,4.50977011 20.4525862,5.12689655 L20.4525862,8.44310345 L18.6113793,8.44310345 L18.6113793,5.80844828 C18.6113793,5.54396552 18.5910345,5.33034483 18.5503448,5.16758621 C18.5096552,5.00482759 18.4418391,4.87936782 18.3468966,4.7912069 C18.1841379,4.6487931 17.9874713,4.57758621 17.7568966,4.57758621 C17.4449425,4.57758621 17.2058908,4.67083333 17.0397414,4.85732759 C16.873592,5.04382184 16.7905172,5.31 16.7905172,5.65586207 L16.7905172,8.44310345 L14.9493103,8.44310345 L14.9493103,0 Z" id="Path" fill-rule="nonzero"></path>
                        <polygon id="Rectangle" points="27.5342387 9.32241379 107.4925 9.32241379 107.4925 11.0465517 26.4580172 11.0465517"></polygon>
                        <path d="M23.6955172,3.22465517 L25.0891379,5.9 L26.442069,3.22465517 L28.557931,3.22465517 L24.3668966,11.0472414 L22.3018966,11.0472414 L22.3022241,11.0456552 L0.0442241379,11.0465517 L0.0442241379,9.32241379 L23.2272241,9.32165517 L24.082069,7.73103448 L21.5593103,3.22465517 L23.6955172,3.22465517 Z" id="Combined-Shape" fill-rule="nonzero"></path>
                        <polygon id="Path" fill-rule="nonzero" points="31.9331034 4.76068966 31.9331034 8.44310345 30.0918966 8.44310345 30.0918966 4.76068966 29.4815517 4.76068966 29.4815517 3.22465517 30.0918966 3.22465517 30.0918966 1.65810345 31.9331034 1.65810345 31.9331034 3.22465517 32.9808621 3.22465517 32.9808621 4.76068966"></polygon>
                        <path d="M34.5962069,0 L36.4374138,0 L36.4374138,3.88586207 C36.6883333,3.58068966 36.9426437,3.37554598 37.2003448,3.27043103 C37.458046,3.16531609 37.7598276,3.11275862 38.1056897,3.11275862 C38.7635057,3.11275862 39.2602586,3.29416667 39.5959483,3.65698276 C39.9316379,4.01979885 40.0994828,4.50977011 40.0994828,5.12689655 L40.0994828,8.44310345 L38.2582759,8.44310345 L38.2582759,5.80844828 C38.2582759,5.54396552 38.237931,5.33034483 38.1972414,5.16758621 C38.1565517,5.00482759 38.0887356,4.87936782 37.9937931,4.7912069 C37.8310345,4.6487931 37.6343678,4.57758621 37.4037931,4.57758621 C37.0918391,4.57758621 36.8527874,4.67083333 36.6866379,4.85732759 C36.5204885,5.04382184 36.4374138,5.31 36.4374138,5.65586207 L36.4374138,8.44310345 L34.5962069,8.44310345 L34.5962069,0 Z" id="Path" fill-rule="nonzero"></path>
                        <path d="M42.0403448,3.22465517 L43.8815517,3.22465517 L43.8815517,3.86551724 C44.3833908,3.38402299 44.9462644,3.14327586 45.5701724,3.14327586 C46.3432759,3.14327586 46.9332759,3.4687931 47.3401724,4.11982759 C47.7538506,3.46201149 48.3438506,3.13310345 49.1101724,3.13310345 C49.3543103,3.13310345 49.5848851,3.1687069 49.8018966,3.23991379 C50.018908,3.31112069 50.2054023,3.42301724 50.3613793,3.57560345 C50.5173563,3.72818966 50.6411207,3.92655172 50.7326724,4.17068966 C50.8242241,4.41482759 50.87,4.70982759 50.87,5.05568966 L50.87,8.44310345 L49.0287931,8.44310345 L49.0287931,5.86948276 C49.0287931,5.605 49.0101437,5.38798851 48.9728448,5.21844828 C48.935546,5.04890805 48.8812931,4.91666667 48.8100862,4.82172414 C48.7388793,4.72678161 48.6558046,4.66235632 48.5608621,4.62844828 C48.4659195,4.59454023 48.3641954,4.57758621 48.2556897,4.57758621 C47.6656897,4.57758621 47.3706897,5.00821839 47.3706897,5.86948276 L47.3706897,8.44310345 L45.5294828,8.44310345 L45.5294828,5.86948276 C45.5294828,5.605 45.5125287,5.3862931 45.4786207,5.21336207 C45.4447126,5.04043103 45.395546,4.90310345 45.3311207,4.80137931 C45.2666954,4.69965517 45.1836207,4.63014368 45.0818966,4.59284483 C44.9801724,4.55554598 44.8614943,4.53689655 44.7258621,4.53689655 C44.6105747,4.53689655 44.502069,4.55385057 44.4003448,4.58775862 C44.2986207,4.62166667 44.2087644,4.68778736 44.1307759,4.78612069 C44.0527874,4.88445402 43.9917529,5.02008621 43.9476724,5.19301724 C43.903592,5.36594828 43.8815517,5.59143678 43.8815517,5.86948276 L43.8815517,8.44310345 L42.0403448,8.44310345 L42.0403448,3.22465517 Z" id="Path" fill-rule="nonzero"></path>
                        <path d="M56.6356897,5.07603448 C56.5746552,4.81833333 56.4491954,4.61149425 56.2593103,4.45551724 C56.0694253,4.29954023 55.8388506,4.22155172 55.5675862,4.22155172 C55.2827586,4.22155172 55.0504885,4.29614943 54.8707759,4.44534483 C54.6910632,4.59454023 54.5774713,4.80477011 54.53,5.07603448 L56.6356897,5.07603448 Z M54.4791379,6.14413793 C54.4791379,6.93758621 54.8521264,7.33431034 55.5981034,7.33431034 C55.9982184,7.33431034 56.3,7.17155172 56.5034483,6.84603448 L58.2836207,6.84603448 C57.9241954,8.0395977 57.0256322,8.63637931 55.587931,8.63637931 C55.1471264,8.63637931 54.7436207,8.57025862 54.3774138,8.43801724 C54.0112069,8.30577586 53.6975575,8.11758621 53.4364655,7.87344828 C53.1753736,7.62931034 52.9736207,7.33770115 52.8312069,6.99862069 C52.6887931,6.65954023 52.6175862,6.27977011 52.6175862,5.85931034 C52.6175862,5.42528736 52.6854023,5.03364943 52.8210345,4.68439655 C52.9566667,4.33514368 53.1499425,4.03844828 53.4008621,3.79431034 C53.6517816,3.55017241 53.9552586,3.36198276 54.3112931,3.22974138 C54.6673276,3.0975 55.0691379,3.03137931 55.5167241,3.03137931 C55.9575287,3.03137931 56.3542529,3.0975 56.7068966,3.22974138 C57.0595402,3.36198276 57.357931,3.55356322 57.602069,3.80448276 C57.8462069,4.0554023 58.0327011,4.36227011 58.1615517,4.72508621 C58.2904023,5.0879023 58.3548276,5.49649425 58.3548276,5.95086207 L58.3548276,6.14413793 L54.4791379,6.14413793 Z" id="Shape" fill-rule="nonzero"></path>
                        <polygon id="Path" fill-rule="nonzero" points="62.2182759 4.76068966 62.2182759 8.44310345 60.377069 8.44310345 60.377069 4.76068966 59.7667241 4.76068966 59.7667241 3.22465517 60.377069 3.22465517 60.377069 1.65810345 62.2182759 1.65810345 62.2182759 3.22465517 63.2660345 3.22465517 63.2660345 4.76068966"></polygon>
                        <path d="M66.6310345,3.22465517 L66.6310345,8.44310345 L64.7898276,8.44310345 L64.7898276,3.22465517 L66.6310345,3.22465517 Z M64.6677586,1.22068966 C64.6677586,1.07827586 64.6948851,0.94433908 64.7491379,0.81887931 C64.8033908,0.69341954 64.8779885,0.583218391 64.972931,0.488275862 C65.0678736,0.393333333 65.1780747,0.318735632 65.3035345,0.264482759 C65.4289943,0.210229885 65.562931,0.183103448 65.7053448,0.183103448 C65.8477586,0.183103448 65.9816954,0.210229885 66.1071552,0.264482759 C66.2326149,0.318735632 66.3428161,0.393333333 66.4377586,0.488275862 C66.5327011,0.583218391 66.6072989,0.69341954 66.6615517,0.81887931 C66.7158046,0.94433908 66.742931,1.07827586 66.742931,1.22068966 C66.742931,1.36310345 66.7158046,1.49704023 66.6615517,1.6225 C66.6072989,1.74795977 66.5327011,1.85816092 66.4377586,1.95310345 C66.3428161,2.04804598 66.2326149,2.12264368 66.1071552,2.17689655 C65.9816954,2.23114943 65.8477586,2.25827586 65.7053448,2.25827586 C65.562931,2.25827586 65.4289943,2.23114943 65.3035345,2.17689655 C65.1780747,2.12264368 65.0678736,2.04804598 64.972931,1.95310345 C64.8779885,1.85816092 64.8033908,1.74795977 64.7491379,1.6225 C64.6948851,1.49704023 64.6677586,1.36310345 64.6677586,1.22068966 Z" id="Shape" fill-rule="nonzero"></path>
                        <path d="M72.5187931,4.91327586 C72.2000575,4.69626437 71.877931,4.58775862 71.5524138,4.58775862 C71.376092,4.58775862 71.2116379,4.61827586 71.0590517,4.67931034 C70.9064655,4.74034483 70.7725287,4.82681034 70.6572414,4.9387069 C70.541954,5.05060345 70.4520977,5.18284483 70.3876724,5.33543103 C70.3232471,5.48801724 70.2910345,5.65925287 70.2910345,5.84913793 C70.2910345,6.03224138 70.3232471,6.20008621 70.3876724,6.35267241 C70.4520977,6.50525862 70.5402586,6.6375 70.6521552,6.74939655 C70.7640517,6.8612931 70.8979885,6.94775862 71.0539655,7.0087931 C71.2099425,7.06982759 71.376092,7.10034483 71.5524138,7.10034483 C71.8982759,7.10034483 72.2204023,6.98166667 72.5187931,6.74431034 L72.5187931,8.31086207 C72.0644253,8.50752874 71.6337931,8.60586207 71.2268966,8.60586207 C70.8471264,8.60586207 70.4860057,8.54143678 70.1435345,8.41258621 C69.8010632,8.28373563 69.4992816,8.09893678 69.2381897,7.85818966 C68.9770977,7.61744253 68.7685632,7.32922414 68.6125862,6.99353448 C68.4566092,6.65784483 68.3786207,6.28316092 68.3786207,5.86948276 C68.3786207,5.4558046 68.4532184,5.07772989 68.6024138,4.73525862 C68.7516092,4.39278736 68.9550575,4.09778736 69.2127586,3.85025862 C69.4704598,3.60272989 69.7773276,3.40945402 70.1333621,3.27043103 C70.4893966,3.13140805 70.8708621,3.06189655 71.2777586,3.06189655 C71.7253448,3.06189655 72.139023,3.15683908 72.5187931,3.34672414 L72.5187931,4.91327586 Z" id="Path" fill-rule="nonzero"></path>
                        <path d="M80.5712069,0.773103448 L80.5712069,4.9437931 C80.5712069,5.16758621 80.5796839,5.39646552 80.5966379,5.63043103 C80.613592,5.86439655 80.664454,6.07632184 80.7492241,6.2662069 C80.8339943,6.45609195 80.967931,6.61037356 81.1510345,6.72905172 C81.3341379,6.84772989 81.5918391,6.90706897 81.9241379,6.90706897 C82.2564368,6.90706897 82.5124425,6.84772989 82.6921552,6.72905172 C82.8718678,6.61037356 83.0058046,6.45609195 83.0939655,6.2662069 C83.1821264,6.07632184 83.2346839,5.86439655 83.2516379,5.63043103 C83.268592,5.39646552 83.277069,5.16758621 83.277069,4.9437931 L83.277069,0.773103448 L85.2606897,0.773103448 L85.2606897,5.21844828 C85.2606897,6.41201149 84.9877299,7.28344828 84.4418103,7.83275862 C83.8958908,8.38206897 83.0566667,8.65672414 81.9241379,8.65672414 C80.7916092,8.65672414 79.9506897,8.38206897 79.4013793,7.83275862 C78.852069,7.28344828 78.5774138,6.41201149 78.5774138,5.21844828 L78.5774138,0.773103448 L80.5712069,0.773103448 Z" id="Path" fill-rule="nonzero"></path>
                        <path d="M87.4965517,3.22465517 L89.3377586,3.22465517 L89.3377586,3.88586207 C89.5886782,3.58068966 89.8429885,3.37554598 90.1006897,3.27043103 C90.3583908,3.16531609 90.6601724,3.11275862 91.0060345,3.11275862 C91.3722414,3.11275862 91.6858908,3.1720977 91.9469828,3.29077586 C92.2080747,3.40945402 92.4301724,3.57729885 92.6132759,3.79431034 C92.7624713,3.97063218 92.8641954,4.16729885 92.9184483,4.38431034 C92.9727011,4.60132184 92.9998276,4.84885057 92.9998276,5.12689655 L92.9998276,8.44310345 L91.1586207,8.44310345 L91.1586207,5.80844828 C91.1586207,5.55074713 91.1399713,5.34221264 91.1026724,5.18284483 C91.0653736,5.02347701 90.9992529,4.89632184 90.9043103,4.80137931 C90.822931,4.72 90.7313793,4.66235632 90.6296552,4.62844828 C90.527931,4.59454023 90.4194253,4.57758621 90.3041379,4.57758621 C89.9921839,4.57758621 89.7531322,4.67083333 89.5869828,4.85732759 C89.4208333,5.04382184 89.3377586,5.31 89.3377586,5.65586207 L89.3377586,8.44310345 L87.4965517,8.44310345 L87.4965517,3.22465517 Z" id="Path" fill-rule="nonzero"></path>
                        <path d="M96.7818966,3.22465517 L96.7818966,8.44310345 L94.9406897,8.44310345 L94.9406897,3.22465517 L96.7818966,3.22465517 Z M94.8186207,1.22068966 C94.8186207,1.07827586 94.8457471,0.94433908 94.9,0.81887931 C94.9542529,0.69341954 95.0288506,0.583218391 95.1237931,0.488275862 C95.2187356,0.393333333 95.3289368,0.318735632 95.4543966,0.264482759 C95.5798563,0.210229885 95.7137931,0.183103448 95.8562069,0.183103448 C95.9986207,0.183103448 96.1325575,0.210229885 96.2580172,0.264482759 C96.383477,0.318735632 96.4936782,0.393333333 96.5886207,0.488275862 C96.6835632,0.583218391 96.7581609,0.69341954 96.8124138,0.81887931 C96.8666667,0.94433908 96.8937931,1.07827586 96.8937931,1.22068966 C96.8937931,1.36310345 96.8666667,1.49704023 96.8124138,1.6225 C96.7581609,1.74795977 96.6835632,1.85816092 96.5886207,1.95310345 C96.4936782,2.04804598 96.383477,2.12264368 96.2580172,2.17689655 C96.1325575,2.23114943 95.9986207,2.25827586 95.8562069,2.25827586 C95.7137931,2.25827586 95.5798563,2.23114943 95.4543966,2.17689655 C95.3289368,2.12264368 95.2187356,2.04804598 95.1237931,1.95310345 C95.0288506,1.85816092 94.9542529,1.74795977 94.9,1.6225 C94.8457471,1.49704023 94.8186207,1.36310345 94.8186207,1.22068966 Z" id="Shape" fill-rule="nonzero"></path>
                        <polygon id="Path" fill-rule="nonzero" points="100.787759 4.76068966 100.787759 8.44310345 98.9465517 8.44310345 98.9465517 4.76068966 98.3362069 4.76068966 98.3362069 3.22465517 98.9465517 3.22465517 98.9465517 1.65810345 100.787759 1.65810345 100.787759 3.22465517 101.835517 3.22465517 101.835517 4.76068966"></polygon>
                        <path d="M106.726379,4.56741379 C106.387299,4.39109195 106.055,4.30293103 105.729483,4.30293103 C105.559943,4.30293103 105.422615,4.33683908 105.3175,4.40465517 C105.212385,4.47247126 105.159828,4.56402299 105.159828,4.67931034 C105.159828,4.74034483 105.168305,4.78951149 105.185259,4.82681034 C105.202213,4.8641092 105.239511,4.89971264 105.297155,4.93362069 C105.354799,4.96752874 105.439569,4.99804598 105.551466,5.02517241 C105.663362,5.05229885 105.810862,5.0862069 105.993966,5.12689655 C106.502586,5.22862069 106.882356,5.41002874 107.133276,5.67112069 C107.384195,5.93221264 107.509655,6.2662069 107.509655,6.67310345 C107.509655,6.97827586 107.448621,7.25293103 107.326552,7.49706897 C107.204483,7.7412069 107.034943,7.94635057 106.817931,8.1125 C106.60092,8.27864943 106.339828,8.4075 106.034655,8.49905172 C105.729483,8.59060345 105.393793,8.63637931 105.027586,8.63637931 C104.322299,8.63637931 103.627184,8.43632184 102.942241,8.0362069 L103.613621,6.73413793 C104.129023,7.08678161 104.617299,7.26310345 105.078448,7.26310345 C105.247989,7.26310345 105.387011,7.2258046 105.495517,7.1512069 C105.604023,7.0766092 105.658276,6.98166667 105.658276,6.86637931 C105.658276,6.79856322 105.649799,6.74261494 105.632845,6.69853448 C105.615891,6.65445402 105.580287,6.61376437 105.526034,6.57646552 C105.471782,6.53916667 105.392098,6.50525862 105.286983,6.47474138 C105.181868,6.44422414 105.04454,6.41201149 104.875,6.37810345 C104.305345,6.26281609 103.906925,6.09158046 103.679741,5.86439655 C103.452557,5.63721264 103.338966,5.32356322 103.338966,4.92344828 C103.338966,4.63183908 103.393218,4.36905172 103.501724,4.13508621 C103.61023,3.90112069 103.766207,3.70275862 103.969655,3.54 C104.173103,3.37724138 104.418937,3.25178161 104.707155,3.16362069 C104.995374,3.07545977 105.315805,3.03137931 105.668448,3.03137931 C106.244885,3.03137931 106.804368,3.14327586 107.346897,3.36706897 L106.726379,4.56741379 Z" id="Path" fill-rule="nonzero"></path>
                    </g>
                </g>
            </g>
            <g id="Spectre-Copy" transform="translate(49.6328, 2.7773)" fill="#FFFFFF" fill-rule="nonzero" opacity="0.8">
                <path d="M5.56640625,1.5234375 L4.45898438,2.1796875 C4.25195312,1.8203125 4.0546875,1.5859375 3.8671875,1.4765625 C3.671875,1.3515625 3.41992188,1.2890625 3.11132812,1.2890625 C2.73242187,1.2890625 2.41796875,1.39648437 2.16796875,1.61132812 C1.91796875,1.82226563 1.79296875,2.08789062 1.79296875,2.40820313 C1.79296875,2.84960938 2.12109375,3.20507813 2.77734375,3.47460937 L3.6796875,3.84375 C4.4140625,4.140625 4.95117188,4.50292969 5.29101562,4.93066406 C5.63085938,5.35839844 5.80078125,5.8828125 5.80078125,6.50390625 C5.80078125,7.3359375 5.5234375,8.0234375 4.96875,8.56640625 C4.41015625,9.11328125 3.71679688,9.38671875 2.88867188,9.38671875 C2.10351563,9.38671875 1.45507813,9.15429687 0.943359375,8.68945313 C0.439453125,8.22460937 0.125,7.5703125 0,6.7265625 L1.3828125,6.421875 C1.4453125,6.953125 1.5546875,7.3203125 1.7109375,7.5234375 C1.9921875,7.9140625 2.40234375,8.109375 2.94140625,8.109375 C3.3671875,8.109375 3.72070313,7.96679687 4.00195313,7.68164063 C4.28320312,7.39648438 4.42382813,7.03515625 4.42382813,6.59765625 C4.42382813,6.421875 4.39941406,6.26074219 4.35058594,6.11425781 C4.30175781,5.96777344 4.22558594,5.83300781 4.12207031,5.70996094 C4.01855469,5.58691406 3.88476563,5.47167969 3.72070313,5.36425781 C3.55664062,5.25683594 3.36132813,5.15429687 3.13476563,5.05664063 L2.26171875,4.69335938 C1.0234375,4.16992187 0.404296875,3.40429687 0.404296875,2.39648437 C0.404296875,1.71679688 0.6640625,1.1484375 1.18359375,0.69140625 C1.703125,0.23046875 2.34960937,0 3.12304687,0 C4.16601562,0 4.98046875,0.5078125 5.56640625,1.5234375 Z" id="Path"></path>
                <path d="M9.61367188,12.328125 L8.2953125,12.328125 L8.2953125,3.515625 L9.61367188,3.515625 L9.61367188,4.13671875 C10.1332031,3.6171875 10.7230469,3.35742188 11.3832031,3.35742188 C12.1683594,3.35742188 12.8148438,3.64648438 13.3226563,4.22460938 C13.8382813,4.79882813 14.0960938,5.5234375 14.0960938,6.3984375 C14.0960938,7.25390625 13.8402344,7.96679688 13.3285156,8.53710938 C12.8207031,9.10351562 12.1800781,9.38671875 11.4066406,9.38671875 C10.7386719,9.38671875 10.1410156,9.11914062 9.61367188,8.58398438 L9.61367188,12.328125 Z M12.7484375,6.40429688 C12.7484375,5.85742188 12.6,5.41210938 12.303125,5.06835938 C12.0023438,4.72070312 11.6234375,4.546875 11.1664063,4.546875 C10.6820313,4.546875 10.2894531,4.71484375 9.98867188,5.05078125 C9.68789063,5.38671875 9.5375,5.828125 9.5375,6.375 C9.5375,6.91015625 9.68789063,7.3515625 9.98867188,7.69921875 C10.2855469,8.0390625 10.6761719,8.20898438 11.1605469,8.20898438 C11.6175781,8.20898438 11.9945313,8.03710938 12.2914063,7.69335938 C12.5960938,7.34960937 12.7484375,6.91992188 12.7484375,6.40429688 Z" id="Shape"></path>
                <path d="M21.7878906,6.6796875 L17.6980469,6.6796875 C17.7332031,7.1484375 17.8855469,7.52148437 18.1550781,7.79882812 C18.4246094,8.07226563 18.7703125,8.20898438 19.1921875,8.20898438 C19.5203125,8.20898438 19.7917969,8.13085938 20.0066406,7.97460938 C20.2175781,7.81835937 20.4578125,7.52929687 20.7273438,7.10742188 L21.840625,7.72851562 C21.66875,8.02148438 21.4871094,8.27246094 21.2957031,8.48144531 C21.1042969,8.69042969 20.8992187,8.86230469 20.6804687,8.99707031 C20.4617188,9.13183594 20.2253906,9.23046875 19.9714844,9.29296875 C19.7175781,9.35546875 19.4421875,9.38671875 19.1453125,9.38671875 C18.29375,9.38671875 17.6101562,9.11328125 17.0945312,8.56640625 C16.5789062,8.015625 16.3210937,7.28515625 16.3210937,6.375 C16.3210937,5.47265625 16.5710937,4.7421875 17.0710937,4.18359375 C17.575,3.6328125 18.2429687,3.35742188 19.075,3.35742188 C19.9148437,3.35742188 20.5789063,3.625 21.0671875,4.16015625 C21.5515625,4.69140625 21.79375,5.42773438 21.79375,6.36914062 L21.7878906,6.6796875 Z M20.434375,5.6015625 C20.2507812,4.8984375 19.8074219,4.546875 19.1042969,4.546875 C18.9441406,4.546875 18.79375,4.57128906 18.653125,4.62011719 C18.5125,4.66894531 18.3845703,4.73925781 18.2693359,4.83105469 C18.1541016,4.92285156 18.0554687,5.03320312 17.9734375,5.16210938 C17.8914062,5.29101562 17.8289062,5.4375 17.7859375,5.6015625 L20.434375,5.6015625 Z" id="Shape"></path>
                <path d="M28.7707031,3.76171875 L28.7707031,5.51367188 C28.4699219,5.14648438 28.2003906,4.89453125 27.9621094,4.7578125 C27.7277344,4.6171875 27.4523438,4.546875 27.1359375,4.546875 C26.6398438,4.546875 26.2277344,4.72070313 25.8996094,5.06835938 C25.5714844,5.41601562 25.4074219,5.8515625 25.4074219,6.375 C25.4074219,6.91015625 25.565625,7.34960938 25.8820313,7.69335938 C26.2023438,8.03710937 26.6105469,8.20898438 27.1066406,8.20898438 C27.4230469,8.20898438 27.7023438,8.140625 27.9445313,8.00390625 C28.1789062,7.87109375 28.4542969,7.61328125 28.7707031,7.23046875 L28.7707031,8.97070312 C28.2355469,9.24804688 27.7003906,9.38671875 27.1652344,9.38671875 C26.2824219,9.38671875 25.5441406,9.1015625 24.9503906,8.53125 C24.3566406,7.95703125 24.0597656,7.24414062 24.0597656,6.39257813 C24.0597656,5.54101562 24.3605469,4.82226563 24.9621094,4.23632813 C25.5636719,3.65039062 26.3019531,3.35742188 27.1769531,3.35742188 C27.7394531,3.35742188 28.2707031,3.4921875 28.7707031,3.76171875 Z" id="Path"></path>
                <polygon id="Path" points="32.5074219 4.74609375 32.5074219 9.22265625 31.1890625 9.22265625 31.1890625 4.74609375 30.6265625 4.74609375 30.6265625 3.515625 31.1890625 3.515625 31.1890625 1.42382812 32.5074219 1.42382812 32.5074219 3.515625 33.5328125 3.515625 33.5328125 4.74609375"></polygon>
                <path d="M35.5292969,3.515625 L36.8476562,3.515625 L36.8476562,4.02539063 C37.0898438,3.77148438 37.3046875,3.59765625 37.4921875,3.50390625 C37.6835938,3.40625 37.9101562,3.35742188 38.171875,3.35742188 C38.5195312,3.35742188 38.8828125,3.47070312 39.2617188,3.69726562 L38.6582031,4.90429688 C38.4082031,4.72460938 38.1640625,4.63476563 37.9257812,4.63476563 C37.2070312,4.63476563 36.8476562,5.17773437 36.8476562,6.26367188 L36.8476562,9.22265625 L35.5292969,9.22265625 L35.5292969,3.515625 Z" id="Path"></path>
                <path d="M46.2328125,6.6796875 L42.1429688,6.6796875 C42.178125,7.1484375 42.3304688,7.52148437 42.6,7.79882812 C42.8695313,8.07226563 43.2152344,8.20898438 43.6371094,8.20898438 C43.9652344,8.20898438 44.2367188,8.13085938 44.4515625,7.97460938 C44.6625,7.81835937 44.9027344,7.52929687 45.1722656,7.10742188 L46.2855469,7.72851562 C46.1136719,8.02148438 45.9320313,8.27246094 45.740625,8.48144531 C45.5492188,8.69042969 45.3441406,8.86230469 45.1253906,8.99707031 C44.9066406,9.13183594 44.6703125,9.23046875 44.4164063,9.29296875 C44.1625,9.35546875 43.8871094,9.38671875 43.5902344,9.38671875 C42.7386719,9.38671875 42.0550781,9.11328125 41.5394531,8.56640625 C41.0238281,8.015625 40.7660156,7.28515625 40.7660156,6.375 C40.7660156,5.47265625 41.0160156,4.7421875 41.5160156,4.18359375 C42.0199219,3.6328125 42.6878906,3.35742188 43.5199219,3.35742188 C44.3597656,3.35742188 45.0238281,3.625 45.5121094,4.16015625 C45.9964844,4.69140625 46.2386719,5.42773438 46.2386719,6.36914062 L46.2328125,6.6796875 Z M44.8792969,5.6015625 C44.6957031,4.8984375 44.2523438,4.546875 43.5492188,4.546875 C43.3890625,4.546875 43.2386719,4.57128906 43.0980469,4.62011719 C42.9574219,4.66894531 42.8294922,4.73925781 42.7142578,4.83105469 C42.5990234,4.92285156 42.5003906,5.03320312 42.4183594,5.16210938 C42.3363281,5.29101562 42.2738281,5.4375 42.2308594,5.6015625 L44.8792969,5.6015625 Z" id="Shape"></path>
            </g>
            <g id="Spectrogram-Visualiz-Copy" transform="translate(359.6145, 2.7529)" fill="#FFFFFF" fill-rule="nonzero" opacity="0.4">
                <path d="M4.63867187,1.83105469 L3.71582031,2.37792969 C3.54329427,2.07845052 3.37890625,1.88313802 3.22265625,1.79199219 C3.05989583,1.68782552 2.8499349,1.63574219 2.59277344,1.63574219 C2.27701823,1.63574219 2.01497396,1.72526042 1.80664062,1.90429687 C1.59830729,2.08007813 1.49414062,2.30143229 1.49414062,2.56835938 C1.49414062,2.93619792 1.76757812,3.23242188 2.31445312,3.45703125 L3.06640625,3.76464844 C3.67838542,4.01204427 4.12597656,4.31396484 4.40917969,4.67041016 C4.69238281,5.02685547 4.83398437,5.46386719 4.83398437,5.98144531 C4.83398437,6.67480469 4.60286458,7.24772135 4.140625,7.70019531 C3.67513021,8.15592448 3.09733073,8.38378906 2.40722656,8.38378906 C1.75292969,8.38378906 1.2125651,8.19010417 0.786132812,7.80273438 C0.366210937,7.41536458 0.104166667,6.87011719 -5.68434189e-14,6.16699219 L1.15234375,5.91308594 C1.20442708,6.35579427 1.29557292,6.66178385 1.42578125,6.83105469 C1.66015625,7.15657552 2.00195312,7.31933594 2.45117187,7.31933594 C2.80598958,7.31933594 3.10058594,7.20052083 3.33496094,6.96289063 C3.56933594,6.72526042 3.68652344,6.42415365 3.68652344,6.05957031 C3.68652344,5.91308594 3.66617839,5.77880859 3.62548828,5.65673828 C3.58479818,5.53466797 3.52132161,5.42236328 3.43505859,5.31982422 C3.34879557,5.21728516 3.23730469,5.12125651 3.10058594,5.03173828 C2.96386719,4.94222005 2.80110677,4.85677083 2.61230469,4.77539063 L1.88476562,4.47265625 C0.852864583,4.03645833 0.336914062,3.3984375 0.336914062,2.55859375 C0.336914062,1.9921875 0.553385417,1.51855469 0.986328125,1.13769531 C1.41927083,0.753580729 1.95800781,0.561523438 2.60253906,0.561523438 C3.47167969,0.561523438 4.15039062,0.984700521 4.63867187,1.83105469 Z" id="Path"></path>
                <path d="M8.19472656,10.8349609 L7.09609375,10.8349609 L7.09609375,3.49121094 L8.19472656,3.49121094 L8.19472656,4.00878906 C8.62766927,3.57584635 9.11920573,3.359375 9.66933594,3.359375 C10.3236328,3.359375 10.8623698,3.60026042 11.2855469,4.08203125 C11.7152344,4.56054688 11.9300781,5.16438802 11.9300781,5.89355469 C11.9300781,6.60644531 11.716862,7.20052083 11.2904297,7.67578125 C10.8672526,8.14778646 10.3333984,8.38378906 9.68886719,8.38378906 C9.13222656,8.38378906 8.63417969,8.16080729 8.19472656,7.71484375 L8.19472656,10.8349609 Z M10.8070312,5.8984375 C10.8070312,5.44270833 10.6833333,5.07161458 10.4359375,4.78515625 C10.1852865,4.49544271 9.86953125,4.35058594 9.48867187,4.35058594 C9.08502604,4.35058594 8.7578776,4.4905599 8.50722656,4.77050781 C8.25657552,5.05045573 8.13125,5.41829427 8.13125,5.87402344 C8.13125,6.31998698 8.25657552,6.68782552 8.50722656,6.97753906 C8.7546224,7.26074219 9.08014323,7.40234375 9.48378906,7.40234375 C9.86464844,7.40234375 10.178776,7.25911458 10.4261719,6.97265625 C10.6800781,6.68619792 10.8070312,6.328125 10.8070312,5.8984375 Z" id="Shape"></path>
                <path d="M18.5232422,6.12792969 L15.1150391,6.12792969 C15.1443359,6.51855469 15.2712891,6.82942708 15.4958984,7.06054687 C15.7205078,7.28841146 16.0085937,7.40234375 16.3601562,7.40234375 C16.6335937,7.40234375 16.8598307,7.33723958 17.0388672,7.20703125 C17.2146484,7.07682292 17.4148437,6.8359375 17.6394531,6.484375 L18.5671875,7.00195312 C18.4239583,7.24609375 18.2725911,7.45524089 18.1130859,7.62939453 C17.9535807,7.80354818 17.7826823,7.94677734 17.6003906,8.05908203 C17.418099,8.17138672 17.2211589,8.25358073 17.0095703,8.30566406 C16.7979818,8.3577474 16.5684896,8.38378906 16.3210937,8.38378906 C15.6114583,8.38378906 15.0417969,8.15592448 14.6121094,7.70019531 C14.1824219,7.24121094 13.9675781,6.63248698 13.9675781,5.87402344 C13.9675781,5.12207031 14.1759115,4.51334635 14.5925781,4.04785156 C15.0125,3.58886719 15.5691406,3.359375 16.2625,3.359375 C16.9623698,3.359375 17.5157552,3.58235677 17.9226562,4.02832031 C18.3263021,4.47102865 18.528125,5.08463542 18.528125,5.86914062 L18.5232422,6.12792969 Z M17.3953125,5.22949219 C17.2423177,4.64355469 16.8728516,4.35058594 16.2869141,4.35058594 C16.1534505,4.35058594 16.028125,4.37093099 15.9109375,4.41162109 C15.79375,4.4523112 15.6871419,4.51090495 15.5911133,4.58740234 C15.4950846,4.66389974 15.4128906,4.75585938 15.3445312,4.86328125 C15.2761719,4.97070312 15.2240885,5.09277344 15.1882812,5.22949219 L17.3953125,5.22949219 Z" id="Shape"></path>
                <path d="M24.5255859,3.69628906 L24.5255859,5.15625 C24.2749349,4.85026042 24.0503255,4.64029948 23.8517578,4.52636719 C23.6564453,4.40917969 23.4269531,4.35058594 23.1632813,4.35058594 C22.7498698,4.35058594 22.4064453,4.49544271 22.1330078,4.78515625 C21.8595703,5.07486979 21.7228516,5.43782552 21.7228516,5.87402344 C21.7228516,6.31998698 21.8546875,6.68619792 22.1183594,6.97265625 C22.3852865,7.25911458 22.7254557,7.40234375 23.1388672,7.40234375 C23.4025391,7.40234375 23.6352865,7.3453776 23.8371094,7.23144531 C24.0324219,7.12076823 24.2619141,6.90592448 24.5255859,6.58691406 L24.5255859,8.03710937 C24.0796224,8.26822917 23.6336589,8.38378906 23.1876953,8.38378906 C22.4520182,8.38378906 21.8367839,8.14615885 21.3419922,7.67089844 C20.8472005,7.19238281 20.5998047,6.59830729 20.5998047,5.88867188 C20.5998047,5.17903646 20.8504557,4.58007813 21.3517578,4.09179688 C21.8530599,3.60351562 22.4682943,3.359375 23.1974609,3.359375 C23.6662109,3.359375 24.1089193,3.47167969 24.5255859,3.69628906 Z" id="Path"></path>
                <polygon id="Path" points="27.8228516 4.51660156 27.8228516 8.24707031 26.7242187 8.24707031 26.7242187 4.51660156 26.2554687 4.51660156 26.2554687 3.49121094 26.7242187 3.49121094 26.7242187 1.74804688 27.8228516 1.74804688 27.8228516 3.49121094 28.6773437 3.49121094 28.6773437 4.51660156"></polygon>
                <path d="M30.5244141,3.49121094 L31.6230469,3.49121094 L31.6230469,3.91601563 C31.8248698,3.70442708 32.0039062,3.55957031 32.1601562,3.48144531 C32.3196615,3.4000651 32.5084635,3.359375 32.7265625,3.359375 C33.016276,3.359375 33.3190104,3.45377604 33.6347656,3.64257812 L33.1318359,4.6484375 C32.9235026,4.49869792 32.7200521,4.42382813 32.5214844,4.42382813 C31.922526,4.42382813 31.6230469,4.87630208 31.6230469,5.78125 L31.6230469,8.24707031 L30.5244141,8.24707031 L30.5244141,3.49121094 Z" id="Path"></path>
                <path d="M35.0521484,5.83496094 C35.0521484,5.14811198 35.2979167,4.56380208 35.7894531,4.08203125 C36.2809896,3.60026042 36.8799479,3.359375 37.5863281,3.359375 C38.2959635,3.359375 38.8981771,3.60188802 39.3929688,4.08691406 C39.88125,4.5719401 40.1253906,5.16764323 40.1253906,5.87402344 C40.1253906,6.58691406 39.8796224,7.18424479 39.3880859,7.66601562 C38.8932943,8.14453125 38.2861979,8.38378906 37.5667969,8.38378906 C36.8539063,8.38378906 36.2565755,8.13964844 35.7748047,7.65136719 C35.2930339,7.16959635 35.0521484,6.5641276 35.0521484,5.83496094 Z M36.1751953,5.85449219 C36.1751953,6.3297526 36.3021484,6.70572917 36.5560547,6.98242188 C36.8164714,7.26236979 37.1598958,7.40234375 37.5863281,7.40234375 C38.0160156,7.40234375 38.3594401,7.2639974 38.6166016,6.98730469 C38.873763,6.71061198 39.0023438,6.34114583 39.0023438,5.87890625 C39.0023438,5.41666667 38.873763,5.04720052 38.6166016,4.77050781 C38.3561849,4.4905599 38.0127604,4.35058594 37.5863281,4.35058594 C37.1664063,4.35058594 36.826237,4.4905599 36.5658203,4.77050781 C36.3054036,5.05045573 36.1751953,5.41178385 36.1751953,5.85449219 Z" id="Shape"></path>
                <path d="M46.9871094,8.13476562 C46.9871094,8.359375 46.9797852,8.55712891 46.9651367,8.72802734 C46.9504883,8.89892578 46.9301432,9.04947917 46.9041016,9.1796875 C46.8259766,9.53776042 46.6729818,9.8453776 46.4451172,10.1025391 C46.0154297,10.5973307 45.4246094,10.8447266 44.6726562,10.8447266 C44.0378906,10.8447266 43.5154297,10.6738281 43.1052734,10.3320313 C42.6820964,9.98046875 42.4379557,9.4938151 42.3728516,8.87207031 L43.4763672,8.87207031 C43.5186849,9.10644531 43.5886719,9.28710938 43.6863281,9.4140625 C43.9141927,9.71028646 44.246224,9.85839844 44.6824219,9.85839844 C45.4864583,9.85839844 45.8884766,9.36523438 45.8884766,8.37890625 L45.8884766,7.71484375 C45.4522786,8.16080729 44.949349,8.38378906 44.3796875,8.38378906 C43.731901,8.38378906 43.2013021,8.14941406 42.7878906,7.68066406 C42.371224,7.20540365 42.1628906,6.61132812 42.1628906,5.8984375 C42.1628906,5.20507812 42.3565755,4.61588542 42.7439453,4.13085938 C43.160612,3.61653646 43.7107422,3.359375 44.3943359,3.359375 C44.9932943,3.359375 45.4913411,3.58235677 45.8884766,4.02832031 L45.8884766,3.49121094 L46.9871094,3.49121094 L46.9871094,8.13476562 Z M45.9324219,5.87890625 C45.9324219,5.41666667 45.808724,5.04720052 45.5613281,4.77050781 C45.3106771,4.48730469 44.9900391,4.34570312 44.5994141,4.34570312 C44.1827474,4.34570312 43.8539714,4.50032552 43.6130859,4.80957031 C43.394987,5.08626302 43.2859375,5.44433594 43.2859375,5.88378906 C43.2859375,6.31673177 43.394987,6.67154948 43.6130859,6.94824219 C43.8507161,7.25097656 44.1794922,7.40234375 44.5994141,7.40234375 C45.0193359,7.40234375 45.3513672,7.24934896 45.5955078,6.94335937 C45.8201172,6.66666667 45.9324219,6.31184896 45.9324219,5.87890625 Z" id="Shape"></path>
                <path d="M49.4738281,3.49121094 L50.5724609,3.49121094 L50.5724609,3.91601563 C50.7742839,3.70442708 50.9533203,3.55957031 51.1095703,3.48144531 C51.2690755,3.4000651 51.4578776,3.359375 51.6759766,3.359375 C51.9656901,3.359375 52.2684245,3.45377604 52.5841797,3.64257812 L52.08125,4.6484375 C51.8729167,4.49869792 51.6694661,4.42382813 51.4708984,4.42382813 C50.8719401,4.42382813 50.5724609,4.87630208 50.5724609,5.78125 L50.5724609,8.24707031 L49.4738281,8.24707031 L49.4738281,3.49121094 Z" id="Path"></path>
                <path d="M57.7515625,3.49121094 L58.8550781,3.49121094 L58.8550781,8.24707031 L57.7515625,8.24707031 L57.7515625,7.74902344 C57.2990885,8.17220052 56.8124349,8.38378906 56.2916016,8.38378906 C55.6340495,8.38378906 55.0904297,8.14615885 54.6607422,7.67089844 C54.2343099,7.1858724 54.0210937,6.58040365 54.0210937,5.85449219 C54.0210937,5.14160156 54.2343099,4.54752604 54.6607422,4.07226562 C55.0871745,3.59700521 55.6210286,3.359375 56.2623047,3.359375 C56.8156901,3.359375 57.3121094,3.58723958 57.7515625,4.04296875 L57.7515625,3.49121094 Z M55.1441406,5.85449219 C55.1441406,6.31022135 55.2662109,6.6813151 55.5103516,6.96777344 C55.7610026,7.25748698 56.0767578,7.40234375 56.4576172,7.40234375 C56.8645182,7.40234375 57.1932943,7.26236979 57.4439453,6.98242188 C57.6945964,6.69270833 57.8199219,6.32486979 57.8199219,5.87890625 C57.8199219,5.43294271 57.6945964,5.06510417 57.4439453,4.77539062 C57.1932943,4.4921875 56.8677734,4.35058594 56.4673828,4.35058594 C56.0897786,4.35058594 55.7740234,4.4938151 55.5201172,4.78027344 C55.2694661,5.06998698 55.1441406,5.4280599 55.1441406,5.85449219 Z" id="Shape"></path>
                <path d="M61.3417969,3.49121094 L62.4404297,3.49121094 L62.4404297,3.93066406 C62.6520182,3.7093099 62.8326823,3.55957031 62.9824219,3.48144531 C63.1419271,3.4000651 63.3421224,3.359375 63.5830078,3.359375 C64.1201172,3.359375 64.5449219,3.59375 64.8574219,4.0625 C65.202474,3.59375 65.6695964,3.359375 66.2587891,3.359375 C67.3297526,3.359375 67.8652344,4.00878906 67.8652344,5.30761719 L67.8652344,8.24707031 L66.7617187,8.24707031 L66.7617187,5.60546875 C66.7617187,5.14973958 66.7063802,4.82747396 66.5957031,4.63867188 C66.4817708,4.44661458 66.2945964,4.35058594 66.0341797,4.35058594 C65.7314453,4.35058594 65.5109049,4.46451823 65.3725586,4.69238281 C65.2342122,4.9202474 65.1650391,5.28645833 65.1650391,5.79101563 L65.1650391,8.24707031 L64.0615234,8.24707031 L64.0615234,5.62011719 C64.0615234,4.77376302 63.8173828,4.35058594 63.3291016,4.35058594 C63.0198568,4.35058594 62.7944336,4.46614583 62.652832,4.69726563 C62.5112305,4.92838542 62.4404297,5.29296875 62.4404297,5.79101563 L62.4404297,8.24707031 L61.3417969,8.24707031 L61.3417969,3.49121094 Z" id="Path"></path>
                <polygon id="Path" points="75.1287109 0.708007812 77.2136719 5.93261719 79.3279297 0.708007812 80.5730469 0.708007812 77.1892578 8.81347656 73.8835937 0.708007812"></polygon>
                <path d="M83.596875,3.49121094 L83.596875,8.24707031 L82.4982422,8.24707031 L82.4982422,3.49121094 L83.596875,3.49121094 Z M82.3322266,1.51367187 C82.3322266,1.32161458 82.4022135,1.15559896 82.5421875,1.015625 C82.6821615,0.875651042 82.8498047,0.805664062 83.0451172,0.805664062 C83.2436849,0.805664062 83.4129557,0.875651042 83.5529297,1.015625 C83.6929036,1.15234375 83.7628906,1.31998698 83.7628906,1.51855469 C83.7628906,1.7171224 83.6929036,1.88639323 83.5529297,2.02636719 C83.4162109,2.16634115 83.2485677,2.23632812 83.05,2.23632812 C82.8514323,2.23632812 82.6821615,2.16634115 82.5421875,2.02636719 C82.4022135,1.88639323 82.3322266,1.71549479 82.3322266,1.51367187 Z" id="Shape"></path>
                <path d="M88.8521484,4.30175781 L87.9439453,4.78515625 C87.8007161,4.4921875 87.6233073,4.34570312 87.4117187,4.34570312 C87.3108073,4.34570312 87.2245443,4.37906901 87.1529297,4.44580078 C87.0813151,4.51253255 87.0455078,4.59798177 87.0455078,4.70214844 C87.0455078,4.8844401 87.2570964,5.06510417 87.6802734,5.24414063 C88.2629557,5.49479167 88.6552083,5.72591146 88.8570312,5.9375 C89.0588542,6.14908854 89.1597656,6.43391927 89.1597656,6.79199219 C89.1597656,7.25097656 88.9904948,7.63509115 88.6519531,7.94433594 C88.3231771,8.23730469 87.9260417,8.38378906 87.4605469,8.38378906 C86.6630208,8.38378906 86.0982422,7.99479167 85.7662109,7.21679688 L86.7037109,6.78222656 C86.8339193,7.01009115 86.9332031,7.15494792 87.0015625,7.21679688 C87.135026,7.34049479 87.2945312,7.40234375 87.4800781,7.40234375 C87.8511719,7.40234375 88.0367187,7.23307292 88.0367187,6.89453125 C88.0367187,6.69921875 87.8934896,6.51692708 87.6070312,6.34765625 C87.4963542,6.29231771 87.3856771,6.23860677 87.275,6.18652344 C87.1643229,6.1344401 87.0520182,6.08072917 86.9380859,6.02539062 C86.6190755,5.86914062 86.3944661,5.71289062 86.2642578,5.55664063 C86.0982422,5.35807292 86.0152344,5.10253906 86.0152344,4.79003906 C86.0152344,4.3766276 86.1568359,4.03483073 86.4400391,3.76464844 C86.7297526,3.49446615 87.0813151,3.359375 87.4947266,3.359375 C88.1034505,3.359375 88.5559245,3.6735026 88.8521484,4.30175781 Z" id="Path"></path>
                <path d="M92.3447266,3.49121094 L92.3447266,6.22070312 C92.3447266,7.00846354 92.655599,7.40234375 93.2773437,7.40234375 C93.8990885,7.40234375 94.2099609,7.00846354 94.2099609,6.22070312 L94.2099609,3.49121094 L95.3085937,3.49121094 L95.3085937,6.24511719 C95.3085937,6.62597656 95.2613932,6.9547526 95.1669922,7.23144531 C95.0758464,7.47884115 94.9179687,7.70182292 94.6933594,7.90039062 C94.3222656,8.22265625 93.8502604,8.38378906 93.2773437,8.38378906 C92.7076823,8.38378906 92.2373047,8.22265625 91.8662109,7.90039062 C91.6383464,7.70182292 91.4772135,7.47884115 91.3828125,7.23144531 C91.2916667,7.01009115 91.2460937,6.6813151 91.2460937,6.24511719 L91.2460937,3.49121094 L92.3447266,3.49121094 Z" id="Path"></path>
                <path d="M101.301172,3.49121094 L102.404687,3.49121094 L102.404687,8.24707031 L101.301172,8.24707031 L101.301172,7.74902344 C100.848698,8.17220052 100.362044,8.38378906 99.8412109,8.38378906 C99.1836589,8.38378906 98.6400391,8.14615885 98.2103516,7.67089844 C97.7839193,7.1858724 97.5707031,6.58040365 97.5707031,5.85449219 C97.5707031,5.14160156 97.7839193,4.54752604 98.2103516,4.07226562 C98.6367839,3.59700521 99.170638,3.359375 99.8119141,3.359375 C100.365299,3.359375 100.861719,3.58723958 101.301172,4.04296875 L101.301172,3.49121094 Z M98.69375,5.85449219 C98.69375,6.31022135 98.8158203,6.6813151 99.0599609,6.96777344 C99.310612,7.25748698 99.6263672,7.40234375 100.007227,7.40234375 C100.414128,7.40234375 100.742904,7.26236979 100.993555,6.98242188 C101.244206,6.69270833 101.369531,6.32486979 101.369531,5.87890625 C101.369531,5.43294271 101.244206,5.06510417 100.993555,4.77539062 C100.742904,4.4921875 100.417383,4.35058594 100.016992,4.35058594 C99.639388,4.35058594 99.3236328,4.4938151 99.0697266,4.78027344 C98.8190755,5.06998698 98.69375,5.4280599 98.69375,5.85449219 Z" id="Shape"></path>
                <polygon id="Path" points="105.990039 0 105.990039 8.24707031 104.891406 8.24707031 104.891406 0"></polygon>
                <path d="M109.580273,3.49121094 L109.580273,8.24707031 L108.481641,8.24707031 L108.481641,3.49121094 L109.580273,3.49121094 Z M108.315625,1.51367187 C108.315625,1.32161458 108.385612,1.15559896 108.525586,1.015625 C108.66556,0.875651042 108.833203,0.805664062 109.028516,0.805664062 C109.227083,0.805664062 109.396354,0.875651042 109.536328,1.015625 C109.676302,1.15234375 109.746289,1.31998698 109.746289,1.51855469 C109.746289,1.7171224 109.676302,1.88639323 109.536328,2.02636719 C109.399609,2.16634115 109.231966,2.23632812 109.033398,2.23632812 C108.834831,2.23632812 108.66556,2.16634115 108.525586,2.02636719 C108.385612,1.88639323 108.315625,1.71549479 108.315625,1.51367187 Z" id="Shape"></path>
                <polygon id="Path" points="113.649023 7.21191406 116.476172 7.21191406 116.476172 8.24707031 111.471289 8.24707031 114.552344 4.51660156 112.125586 4.51660156 112.125586 3.49121094 116.725195 3.49121094"></polygon>
                <path d="M122.9375,6.12792969 L119.529297,6.12792969 C119.558594,6.51855469 119.685547,6.82942708 119.910156,7.06054687 C120.134766,7.28841146 120.422852,7.40234375 120.774414,7.40234375 C121.047852,7.40234375 121.274089,7.33723958 121.453125,7.20703125 C121.628906,7.07682292 121.829102,6.8359375 122.053711,6.484375 L122.981445,7.00195312 C122.838216,7.24609375 122.686849,7.45524089 122.527344,7.62939453 C122.367839,7.80354818 122.19694,7.94677734 122.014648,8.05908203 C121.832357,8.17138672 121.635417,8.25358073 121.423828,8.30566406 C121.21224,8.3577474 120.982747,8.38378906 120.735352,8.38378906 C120.025716,8.38378906 119.456055,8.15592448 119.026367,7.70019531 C118.59668,7.24121094 118.381836,6.63248698 118.381836,5.87402344 C118.381836,5.12207031 118.590169,4.51334635 119.006836,4.04785156 C119.426758,3.58886719 119.983398,3.359375 120.676758,3.359375 C121.376628,3.359375 121.930013,3.58235677 122.336914,4.02832031 C122.74056,4.47102865 122.942383,5.08463542 122.942383,5.86914062 L122.9375,6.12792969 Z M121.80957,5.22949219 C121.656576,4.64355469 121.287109,4.35058594 120.701172,4.35058594 C120.567708,4.35058594 120.442383,4.37093099 120.325195,4.41162109 C120.208008,4.4523112 120.1014,4.51090495 120.005371,4.58740234 C119.909342,4.66389974 119.827148,4.75585938 119.758789,4.86328125 C119.69043,4.97070312 119.638346,5.09277344 119.602539,5.22949219 L121.80957,5.22949219 Z" id="Shape"></path>
                <path d="M125.238672,3.49121094 L126.337305,3.49121094 L126.337305,3.91601563 C126.539128,3.70442708 126.718164,3.55957031 126.874414,3.48144531 C127.033919,3.4000651 127.222721,3.359375 127.44082,3.359375 C127.730534,3.359375 128.033268,3.45377604 128.349023,3.64257812 L127.846094,4.6484375 C127.63776,4.49869792 127.43431,4.42382813 127.235742,4.42382813 C126.636784,4.42382813 126.337305,4.87630208 126.337305,5.78125 L126.337305,8.24707031 L125.238672,8.24707031 L125.238672,3.49121094 Z" id="Path"></path>
            </g>
        </g>
        <g id="Run" transform="translate(13.105, 317.46)" fill="#FFFFFF" fill-rule="nonzero">
            <g id="Run-Copy">
                <path d="M1.96,3.37 L2.33,3.37 C2.71666667,3.37 3.01333333,3.29 3.22,3.13 C3.42666667,2.97 3.53,2.74 3.53,2.44 C3.53,2.14 3.42666667,1.91 3.22,1.75 C3.01333333,1.59 2.71666667,1.51 2.33,1.51 L1.96,1.51 L1.96,3.37 Z M6.27,7.54 L3.83,7.54 L1.96,4.64 L1.96,7.54 L0,7.54 L0,0 L3.05,0 C3.47,0 3.83666667,0.0616666667 4.15,0.185 C4.46333333,0.308333333 4.72166667,0.476666667 4.925,0.69 C5.12833333,0.903333333 5.28166667,1.15 5.385,1.43 C5.48833333,1.71 5.54,2.01 5.54,2.33 C5.54,2.90333333 5.40166667,3.36833333 5.125,3.725 C4.84833333,4.08166667 4.44,4.32333333 3.9,4.45 L6.27,7.54 Z" id="Shape"></path>
                <path d="M8.68,2.41 L8.68,5.3 C8.68,5.93333333 8.98666667,6.25 9.6,6.25 C10.2133333,6.25 10.52,5.93333333 10.52,5.3 L10.52,2.41 L12.33,2.41 L12.33,5.65 C12.33,6.34333333 12.1016667,6.86333333 11.645,7.21 C11.1883333,7.55666667 10.5066667,7.73 9.6,7.73 C8.69333333,7.73 8.01166667,7.55666667 7.555,7.21 C7.09833333,6.86333333 6.87,6.34333333 6.87,5.65 L6.87,2.41 L8.68,2.41 Z" id="Path"></path>
                <path d="M13.56,2.41 L15.37,2.41 L15.37,3.06 C15.6166667,2.76 15.8666667,2.55833333 16.12,2.455 C16.3733333,2.35166667 16.67,2.3 17.01,2.3 C17.37,2.3 17.6783333,2.35833333 17.935,2.475 C18.1916667,2.59166667 18.41,2.75666667 18.59,2.97 C18.7366667,3.14333333 18.8366667,3.33666667 18.89,3.55 C18.9433333,3.76333333 18.97,4.00666667 18.97,4.28 L18.97,7.54 L17.16,7.54 L17.16,4.95 C17.16,4.69666667 17.1416667,4.49166667 17.105,4.335 C17.0683333,4.17833333 17.0033333,4.05333333 16.91,3.96 C16.83,3.88 16.74,3.82333333 16.64,3.79 C16.54,3.75666667 16.4333333,3.74 16.32,3.74 C16.0133333,3.74 15.7783333,3.83166667 15.615,4.015 C15.4516667,4.19833333 15.37,4.46 15.37,4.8 L15.37,7.54 L13.56,7.54 L13.56,2.41 Z" id="Path"></path>
            </g>
        </g>
        <g id="Input" transform="translate(18, 40)" fill="#E6E6E6">
            <rect id="Rectangle" x="0" y="0" width="8" height="37"></rect>
        </g>
    </g>
</svg>